<?xml version="1.0" encoding="UTF-8" standalone="yes"?>
<svg version="1.2" width="300" height="300" baseProfile="tiny-ps" xmlns="http://www.w3.org/2000/svg">
  <title>bimi-svg-tiny-12-ps</title>
  <path d="M0 0 C99 0 198 0 300 0 C300 99 300 198 300 300 C201 300 102 300 0 300 C0 201 0 102 0 0 Z " fill="#FDFDFD" transform="translate(0,0)"/>
  <path d="M0 0 C7.92 0 15.84 0 24 0 C24 0.66 24 1.32 24 2 C25.32 2 26.64 2 28 2 C28 2.66 28 3.32 28 4 C29.27875 4.0825 30.5575 4.165 31.875 4.25 C37.34050801 4.83217653 42.01815378 6.76388948 47 9 C47 9.66 47 10.32 47 11 C47.99 11 48.98 11 50 11 C50 11.66 50 12.32 50 13 C50.66 13 51.32 13 52 13 C52 13.66 52 14.32 52 15 C53.32 15 54.64 15 56 15 C56 15.66 56 16.32 56 17 C56.66 17 57.32 17 58 17 C58 17.66 58 18.32 58 19 C58.7425 19.268125 59.485 19.53625 60.25 19.8125 C62.89061949 20.95276751 64.85552844 22.09380306 67 24 C67 24.66 67 25.32 67 26 C67.66 26 68.32 26 69 26 C69 26.66 69 27.32 69 28 C69.66 28 70.32 28 71 28 C71 28.66 71 29.32 71 30 C71.66 30 72.32 30 73 30 C73 30.66 73 31.32 73 32 C73.66 32 74.32 32 75 32 C75 33.32 75 34.64 75 36 C75.66 36 76.32 36 77 36 C80 40.38461538 80 40.38461538 80 43 C80.66 43 81.32 43 82 43 C82 44.32 82 45.64 82 47 C82.66 47 83.32 47 84 47 C84 48.32 84 49.64 84 51 C84.66 51 85.32 51 86 51 C86 52.65 86 54.3 86 56 C81.9814387 54.78508612 78.35787751 53.56778868 75 51 C75 49.68 75 48.36 75 47 C74.34 47 73.68 47 73 47 C73 45.68 73 44.36 73 43 C72.34 43 71.68 43 71 43 C71 42.34 71 41.68 71 41 C70.34 41 69.68 41 69 41 C69 40.01 69 39.02 69 38 C68.34 38 67.68 38 67 38 C67 37.34 67 36.68 67 36 C66.34 36 65.68 36 65 36 C64.505 34.02 64.505 34.02 64 32 C63.34 32 62.68 32 62 32 C62 31.34 62 30.68 62 30 C61.34 30 60.68 30 60 30 C60 29.34 60 28.68 60 28 C59.34 28 58.68 28 58 28 C58 27.34 58 26.68 58 26 C57.34 26 56.68 26 56 26 C56 25.34 56 24.68 56 24 C55.34 24 54.68 24 54 24 C54 23.34 54 22.68 54 22 C51.03 21.01 48.06 20.02 45 19 C45 18.34 45 17.68 45 17 C43.68 17 42.36 17 41 17 C41 16.34 41 15.68 41 15 C39.68 15 38.36 15 37 15 C37 14.34 37 13.68 37 13 C35.35 13 33.7 13 32 13 C32 12.34 32 11.68 32 11 C24.41 11 16.82 11 9 11 C9 11.66 9 12.32 9 13 C8.34 13 7.68 13 7 13 C7 13.66 7 14.32 7 15 C6.01 15 5.02 15 4 15 C4 15.66 4 16.32 4 17 C3.34 17 2.68 17 2 17 C2 17.66 2 18.32 2 19 C1.34 19 0.68 19 0 19 C0 19.66 0 20.32 0 21 C-0.66 21 -1.32 21 -2 21 C-2 22.65 -2 24.3 -2 26 C-2.66 26 -3.32 26 -4 26 C-4 32.27 -4 38.54 -4 45 C-3.34 45 -2.68 45 -2 45 C-2 46.98 -2 48.96 -2 51 C-1.34 51 -0.68 51 0 51 C0 53.31 0 55.62 0 58 C1.32 58 2.64 58 4 58 C4.33 59.98 4.66 61.96 5 64 C5.66 64 6.32 64 7 64 C7 64.66 7 65.32 7 66 C7.66 66 8.32 66 9 66 C9 66.99 9 67.98 9 69 C9.66 69 10.32 69 11 69 C11 69.66 11 70.32 11 71 C11.66 71 12.32 71 13 71 C13 71.66 13 72.32 13 73 C13.66 73 14.32 73 15 73 C15 73.66 15 74.32 15 75 C15.66 75 16.32 75 17 75 C17 75.66 17 76.32 17 77 C17.99 77 18.98 77 20 77 C20 77.66 20 78.32 20 79 C20.66 79 21.32 79 22 79 C22 79.66 22 80.32 22 81 C23.32 81 24.64 81 26 81 C26 81.66 26 82.32 26 83 C28.64 83.33 31.28 83.66 34 84 C34 84.66 34 85.32 34 86 C35.11375 85.979375 36.2275 85.95875 37.375 85.9375 C41 86 41 86 43 87 C44.47414255 87.09539628 45.95246294 87.13073483 47.4296875 87.1328125 C48.30753906 87.13410156 49.18539062 87.13539063 50.08984375 87.13671875 C51.00894531 87.13285156 51.92804688 87.12898438 52.875 87.125 C54.24205078 87.13080078 54.24205078 87.13080078 55.63671875 87.13671875 C56.51714844 87.13542969 57.39757812 87.13414062 58.3046875 87.1328125 C59.5110083 87.13112061 59.5110083 87.13112061 60.74169922 87.12939453 C62.95159635 87.0027734 64.87779135 86.61146326 67 86 C67 85.34 67 84.68 67 84 C68.32 83.67 69.64 83.34 71 83 C71 81.68 71 80.36 71 79 C71.66 79 72.32 79 73 79 C73 77.68 73 76.36 73 75 C73.66 75 74.32 75 75 75 C75.33 72.03 75.66 69.06 76 66 C77.58409994 66.11487748 79.16728963 66.24234508 80.75 66.375 C81.63171875 66.44460937 82.5134375 66.51421875 83.421875 66.5859375 C85.99066382 66.99850055 87.75841015 67.71160957 90 69 C90.19818283 75.70518586 90.30844801 81.65176798 88 88 C87.34 88 86.68 88 86 88 C86 89.32 86 90.64 86 92 C85.34 92 84.68 92 84 92 C84 92.66 84 93.32 84 94 C83.34 94 82.68 94 82 94 C82 94.66 82 95.32 82 96 C81.34 96 80.68 96 80 96 C79.505 97.485 79.505 97.485 79 99 C78.34 99 77.68 99 77 99 C77 99.66 77 100.32 77 101 C75.68 101 74.36 101 73 101 C73 101.66 73 102.32 73 103 C72.34 103 71.68 103 71 103 C71 103.66 71 104.32 71 105 C69.865625 105.144375 68.73125 105.28875 67.5625 105.4375 C64.19222799 105.61171478 64.19222799 105.61171478 63 107 C61.65732587 107.08631874 60.31025678 107.10706473 58.96484375 107.09765625 C58.15595703 107.09443359 57.34707031 107.09121094 56.51367188 107.08789062 C55.66353516 107.07951172 54.81339844 107.07113281 53.9375 107.0625 C53.08349609 107.05798828 52.22949219 107.05347656 51.34960938 107.04882812 C49.23304337 107.03700373 47.11651315 107.01906769 45 107 C45 106.34 45 105.68 45 105 C42.03 105 39.06 105 36 105 C36 104.34 36 103.68 36 103 C34.68 103 33.36 103 32 103 C32 102.34 32 101.68 32 101 C30.02 101 28.04 101 26 101 C26 100.34 26 99.68 26 99 C25.34 99 24.68 99 24 99 C24 98.34 24 97.68 24 97 C20.37 96.67 16.74 96.34 13 96 C13 95.34 13 94.68 13 94 C12.34 94 11.68 94 11 94 C11 93.34 11 92.68 11 92 C10.34 92 9.68 92 9 92 C9 91.34 9 90.68 9 90 C8.34 90 7.68 90 7 90 C7 89.34 7 88.68 7 88 C6.34 88 5.68 88 5 88 C5 87.34 5 86.68 5 86 C3.515 85.505 3.515 85.505 2 85 C2 84.34 2 83.68 2 83 C0.68 83 -0.64 83 -2 83 C-2 81.68 -2 80.36 -2 79 C-2.66 79 -3.32 79 -4 79 C-4 78.34 -4 77.68 -4 77 C-4.66 77 -5.32 77 -6 77 C-6 76.34 -6 75.68 -6 75 C-6.66 75 -7.32 75 -8 75 C-8 74.34 -8 73.68 -8 73 C-8.66 73 -9.32 73 -10 73 C-12.04169485 70.09451118 -13 68.59857954 -13 65 C-13.66 65 -14.32 65 -15 65 C-15 64.01 -15 63.02 -15 62 C-15.66 62 -16.32 62 -17 62 C-17 61.34 -17 60.68 -17 60 C-17.66 60 -18.32 60 -19 60 C-19 58.02 -19 56.04 -19 54 C-19.66 54 -20.32 54 -21 54 C-21 52.35 -21 50.7 -21 49 C-21.66 49 -22.32 49 -23 49 C-23.97083273 44.09923636 -24.18315688 39.41037688 -24.1875 34.4375 C-24.20586914 33.3247168 -24.20586914 33.3247168 -24.22460938 32.18945312 C-24.23591426 27.9576567 -23.83381615 24.89075823 -22 21 C-21.62406934 19.0075675 -21.28020455 17.0081326 -21 15 C-19.68 15 -18.36 15 -17 15 C-17 13.68 -17 12.36 -17 11 C-16.34 11 -15.68 11 -15 11 C-15 10.34 -15 9.68 -15 9 C-10.61538462 6 -10.61538462 6 -8 6 C-8 5.34 -8 4.68 -8 4 C-7.34 4 -6.68 4 -6 4 C-6 3.34 -6 2.68 -6 2 C-4.02 2 -2.04 2 0 2 C0 1.34 0 0.68 0 0 Z " fill="#760327" transform="translate(109,75)"/>
  <path d="M0 0 C7.59 0 15.18 0 23 0 C23 0.66 23 1.32 23 2 C24.65 2 26.3 2 28 2 C28 2.66 28 3.32 28 4 C29.32 4 30.64 4 32 4 C32 4.66 32 5.32 32 6 C33.32 6 34.64 6 36 6 C36 6.66 36 7.32 36 8 C38.475 8.495 38.475 8.495 41 9 C40.01 9.33 39.02 9.66 38 10 C38 10.66 38 11.32 38 12 C37.34 12.33 36.68 12.66 36 13 C36 17.62 36 22.24 36 27 C35.01 27.495 35.01 27.495 34 28 C34 28.66 34 29.32 34 30 C35.98 30 37.96 30 40 30 C40 39.57 40 49.14 40 59 C36.04 59 32.08 59 28 59 C28 59.99 28 60.98 28 62 C24.12315913 63.19287411 21.08378077 64 17 64 C17.33 64.99 17.66 65.98 18 67 C17.67 67.66 17.34 68.32 17 69 C17.66 69 18.32 69 19 69 C19 69.66 19 70.32 19 71 C19.66 71 20.32 71 21 71 C21 71.66 21 72.32 21 73 C19.68 72.67 18.36 72.34 17 72 C17 71.34 17 70.68 17 70 C15.68 70 14.36 70 13 70 C13 69.34 13 68.68 13 68 C12.34 68 11.68 68 11 68 C11 67.34 11 66.68 11 66 C10.01 66 9.02 66 8 66 C8 65.34 8 64.68 8 64 C7.34 64 6.68 64 6 64 C6 63.34 6 62.68 6 62 C5.34 62 4.68 62 4 62 C4 61.34 4 60.68 4 60 C3.34 60 2.68 60 2 60 C2 59.34 2 58.68 2 58 C1.34 58 0.68 58 0 58 C0 57.01 0 56.02 0 55 C-0.66 55 -1.32 55 -2 55 C-2 54.34 -2 53.68 -2 53 C-2.66 53 -3.32 53 -4 53 C-4.33 51.02 -4.66 49.04 -5 47 C-6.32 47 -7.64 47 -9 47 C-9 44.69 -9 42.38 -9 40 C-9.66 40 -10.32 40 -11 40 C-11 38.02 -11 36.04 -11 34 C-11.66 34 -12.32 34 -13 34 C-13 27.73 -13 21.46 -13 15 C-12.34 15 -11.68 15 -11 15 C-11 13.35 -11 11.7 -11 10 C-10.34 10 -9.68 10 -9 10 C-9 9.34 -9 8.68 -9 8 C-8.34 8 -7.68 8 -7 8 C-7 7.34 -7 6.68 -7 6 C-6.34 6 -5.68 6 -5 6 C-5 5.34 -5 4.68 -5 4 C-4.01 4 -3.02 4 -2 4 C-2 3.34 -2 2.68 -2 2 C-1.34 2 -0.68 2 0 2 C0 1.34 0 0.68 0 0 Z " fill="#F7F5F7" transform="translate(118,86)"/>
  <path d="M0 0 C1.98 0 3.96 0 6 0 C6.33 0.99 6.66 1.98 7 3 C7.66 3 8.32 3 9 3 C9 4.32 9 5.64 9 7 C9.66 7 10.32 7 11 7 C11 8.32 11 9.64 11 11 C11.66 11 12.32 11 13 11 C13 11.66 13 12.32 13 13 C14.98 13 16.96 13 19 13 C19 12.34 19 11.68 19 11 C19.99 11 20.98 11 22 11 C22 10.34 22 9.68 22 9 C22.66 9 23.32 9 24 9 C24 8.34 24 7.68 24 7 C24.66 7 25.32 7 26 7 C26 6.34 26 5.68 26 5 C27.32 5 28.64 5 30 5 C30 4.34 30 3.68 30 3 C32.61381519 0.28163221 33.91054943 0.00447253 37.75 -0.1875 C38.8225 -0.125625 39.895 -0.06375 41 0 C41 0.99 41 1.98 41 3 C40.34 3 39.68 3 39 3 C39 4.98 39 6.96 39 9 C39.66 9 40.32 9 41 9 C41 8.34 41 7.68 41 7 C41.66 7 42.32 7 43 7 C42.979375 6.030625 42.95875 5.06125 42.9375 4.0625 C43 1 43 1 44 0 C46.33297433 -0.04092937 48.66705225 -0.04241723 51 0 C51.495 2.475 51.495 2.475 52 5 C52.66 5 53.32 5 54 5 C54 6.32 54 7.64 54 9 C54.66 9 55.32 9 56 9 C56 9.66 56 10.32 56 11 C56.66 11 57.32 11 58 11 C58 11.66 58 12.32 58 13 C58.7425 12.67 59.485 12.34 60.25 12 C63 11 63 11 67 11 C67 10.34 67 9.68 67 9 C68.32 9 69.64 9 71 9 C71 7.68 71 6.36 71 5 C72.32 5 73.64 5 75 5 C75 4.34 75 3.68 75 3 C78.71973879 0.15549386 81.37390802 -0.3227506 86 0 C86 1.65 86 3.3 86 5 C85.34 5 84.68 5 84 5 C84 6.32 84 7.64 84 9 C83.34 9 82.68 9 82 9 C81.896875 9.845625 81.79375 10.69125 81.6875 11.5625 C80.9171146 15.41442701 79.63725486 18.44075031 78 22 C74.04 22 70.08 22 66 22 C66.33 19.69 66.66 17.38 67 15 C65.35 15.33 63.7 15.66 62 16 C62 16.66 62 17.32 62 18 C60.68 18 59.36 18 58 18 C58 18.66 58 19.32 58 20 C57.34 20 56.68 20 56 20 C56 20.66 56 21.32 56 22 C53.1875 22.3125 53.1875 22.3125 50 22 C48.11400657 19.61107499 47 18.08148442 47 15 C45.68 15 44.36 15 43 15 C43 15.66 43 16.32 43 17 C42.34 17 41.68 17 41 17 C41 17.99 41 18.98 41 20 C40.34 20 39.68 20 39 20 C39 20.66 39 21.32 39 22 C33.06 22 27.12 22 21 22 C21.33 19.69 21.66 17.38 22 15 C21.01 15 20.02 15 19 15 C19 15.66 19 16.32 19 17 C17.02 17.33 15.04 17.66 13 18 C13 18.66 13 19.32 13 20 C12.34 20 11.68 20 11 20 C11 20.66 11 21.32 11 22 C9.68 22 8.36 22 7 22 C7 21.34 7 20.68 7 20 C6.34 20 5.68 20 5 20 C4.34 18.68 3.68 17.36 3 16 C0.69 16 -1.62 16 -4 16 C-4 17.98 -4 19.96 -4 22 C-5.32 22 -6.64 22 -8 22 C-8.20140476 18.37471432 -7.85776765 16.13498292 -6 13 C-5.34 13 -4.68 13 -4 13 C-4 11.02 -4 9.04 -4 7 C-3.34 7 -2.68 7 -2 7 C-2 5.35 -2 3.7 -2 2 C-1.34 2 -0.68 2 0 2 C0 1.34 0 0.68 0 0 Z " fill="#21201C" transform="translate(34,201)"/>
  <path d="M0 0 C7.92 0 15.84 0 24 0 C24 0.66 24 1.32 24 2 C25.32 2 26.64 2 28 2 C28 2.66 28 3.32 28 4 C29.27875 4.0825 30.5575 4.165 31.875 4.25 C37.34050801 4.83217653 42.01815378 6.76388948 47 9 C47 9.66 47 10.32 47 11 C47.99 11 48.98 11 50 11 C50 11.66 50 12.32 50 13 C50.66 13 51.32 13 52 13 C52 13.66 52 14.32 52 15 C53.32 15 54.64 15 56 15 C56 15.66 56 16.32 56 17 C56.66 17 57.32 17 58 17 C58 17.66 58 18.32 58 19 C58.7425 19.268125 59.485 19.53625 60.25 19.8125 C62.89061949 20.95276751 64.85552844 22.09380306 67 24 C67 24.66 67 25.32 67 26 C67.66 26 68.32 26 69 26 C69 26.66 69 27.32 69 28 C69.66 28 70.32 28 71 28 C71 28.66 71 29.32 71 30 C71.66 30 72.32 30 73 30 C73 30.66 73 31.32 73 32 C73.66 32 74.32 32 75 32 C75 33.32 75 34.64 75 36 C75.66 36 76.32 36 77 36 C80 40.38461538 80 40.38461538 80 43 C80.66 43 81.32 43 82 43 C82 44.32 82 45.64 82 47 C82.66 47 83.32 47 84 47 C84 48.32 84 49.64 84 51 C84.66 51 85.32 51 86 51 C86 52.65 86 54.3 86 56 C81.9814387 54.78508612 78.35787751 53.56778868 75 51 C75 49.68 75 48.36 75 47 C74.34 47 73.68 47 73 47 C73 45.68 73 44.36 73 43 C72.34 43 71.68 43 71 43 C71 42.34 71 41.68 71 41 C70.34 41 69.68 41 69 41 C69 40.01 69 39.02 69 38 C68.34 38 67.68 38 67 38 C67 37.34 67 36.68 67 36 C66.34 36 65.68 36 65 36 C64.505 34.02 64.505 34.02 64 32 C63.34 32 62.68 32 62 32 C62 31.34 62 30.68 62 30 C61.34 30 60.68 30 60 30 C60 29.34 60 28.68 60 28 C59.34 28 58.68 28 58 28 C58 27.34 58 26.68 58 26 C57.34 26 56.68 26 56 26 C56 25.34 56 24.68 56 24 C55.34 24 54.68 24 54 24 C54 23.34 54 22.68 54 22 C51.03 21.01 48.06 20.02 45 19 C45 18.34 45 17.68 45 17 C43.68 17 42.36 17 41 17 C41 16.34 41 15.68 41 15 C39.68 15 38.36 15 37 15 C37 14.34 37 13.68 37 13 C35.35 13 33.7 13 32 13 C32 12.34 32 11.68 32 11 C24.41 11 16.82 11 9 11 C9 11.66 9 12.32 9 13 C8.34 13 7.68 13 7 13 C7 13.66 7 14.32 7 15 C6.01 15 5.02 15 4 15 C4 15.66 4 16.32 4 17 C3.34 17 2.68 17 2 17 C2 17.66 2 18.32 2 19 C1.34 19 0.68 19 0 19 C0 19.66 0 20.32 0 21 C-0.66 21 -1.32 21 -2 21 C-2 22.65 -2 24.3 -2 26 C-2.66 26 -3.32 26 -4 26 C-4 30.95 -4 35.9 -4 41 C-4.66 41 -5.32 41 -6 41 C-6.02888514 37.85418577 -6.04675923 34.70840531 -6.0625 31.5625 C-6.07087891 30.66466797 -6.07925781 29.76683594 -6.08789062 28.84179688 C-6.09111328 27.98779297 -6.09433594 27.13378906 -6.09765625 26.25390625 C-6.10551147 25.06776733 -6.10551147 25.06776733 -6.11352539 23.85766602 C-6 22 -6 22 -5 21 C-4.7834375 19.329375 -4.7834375 19.329375 -4.5625 17.625 C-4 14 -4 14 -2 11 C-1.34 11.2475 -0.68 11.495 0 11.75 C3.32673912 12.02722826 3.83823567 11.6715013 6.56640625 10.02734375 C11.39769559 7.50277667 15.58706737 7.56873512 20.9375 7.8125 C23.95986861 7.90518296 26.9759441 7.96729143 30 8 C30.33 7.67 30.66 7.34 31 7 C28.525 6.505 28.525 6.505 26 6 C26 5.34 26 4.68 26 4 C16.1 4 6.2 4 -4 4 C-4 4.66 -4 5.32 -4 6 C-5.32 6 -6.64 6 -8 6 C-8 5.34 -8 4.68 -8 4 C-7.34 4 -6.68 4 -6 4 C-6 3.34 -6 2.68 -6 2 C-4.02 2 -2.04 2 0 2 C0 1.34 0 0.68 0 0 Z " fill="#6E1935" transform="translate(109,75)"/>
  <path d="M0 0 C0.36637589 6.35051546 0.36637589 6.35051546 -1.375 9.4375 C-3 11 -3 11 -5 11 C-5.0825 11.61875 -5.165 12.2375 -5.25 12.875 C-5.4975 13.57625 -5.745 14.2775 -6 15 C-6.61875 15.2475 -7.2375 15.495 -7.875 15.75 C-11.30934578 17.7702034 -11.87157779 21.32407916 -13 25 C-12.34 24.67 -11.68 24.34 -11 24 C-11 29.61 -11 35.22 -11 41 C-10.34 41 -9.68 41 -9 41 C-9 41.66 -9 42.32 -9 43 C-8.34 43 -7.68 43 -7 43 C-6.80664062 43.60328125 -6.61328125 44.2065625 -6.4140625 44.828125 C-6.15367188 45.62734375 -5.89328125 46.4265625 -5.625 47.25 C-5.36976562 48.03890625 -5.11453125 48.8278125 -4.8515625 49.640625 C-4.05887299 52.00248856 -4.05887299 52.00248856 -2.8984375 54.109375 C-2 56 -2 56 -2 59 C-0.02 59.66 1.96 60.32 4 61 C4 62.32 4 63.64 4 65 C4.66 65 5.32 65 6 65 C6 64.34 6 63.68 6 63 C6.66 63 7.32 63 8 63 C8 60.03 8 57.06 8 54 C6.68 54 5.36 54 4 54 C4 49.05 4 44.1 4 39 C4.66 39 5.32 39 6 39 C6 40.98 6 42.96 6 45 C6.66 45 7.32 45 8 45 C8 47.31 8 49.62 8 52 C9.32 52 10.64 52 12 52 C12.33 53.98 12.66 55.96 13 58 C13.66 58 14.32 58 15 58 C15 58.66 15 59.32 15 60 C15.66 60 16.32 60 17 60 C17 60.99 17 61.98 17 63 C17.66 63 18.32 63 19 63 C19 63.66 19 64.32 19 65 C19.66 65 20.32 65 21 65 C21 65.66 21 66.32 21 67 C21.66 67 22.32 67 23 67 C23 67.66 23 68.32 23 69 C23.66 69 24.32 69 25 69 C25 69.66 25 70.32 25 71 C25.99 71 26.98 71 28 71 C28 71.66 28 72.32 28 73 C28.66 73 29.32 73 30 73 C30 73.66 30 74.32 30 75 C27.69 74.34 25.38 73.68 23 73 C23 72.34 23 71.68 23 71 C21.68 71 20.36 71 19 71 C19.33 71.99 19.66 72.98 20 74 C19.01 74.33 18.02 74.66 17 75 C17.75150023 78.27773504 17.75150023 78.27773504 21 80 C20.34 80 19.68 80 19 80 C19 80.66 19 81.32 19 82 C19.66 82 20.32 82 21 82 C21 83.32 21 84.64 21 86 C21.66 86 22.32 86 23 86 C23 86.66 23 87.32 23 88 C23.66 88 24.32 88 25 88 C25 88.66 25 89.32 25 90 C23.68 90 22.36 90 21 90 C21 89.34 21 88.68 21 88 C20.34 88 19.68 88 19 88 C19 87.34 19 86.68 19 86 C18.34 86 17.68 86 17 86 C17 85.34 17 84.68 17 84 C16.34 84 15.68 84 15 84 C15 83.34 15 82.68 15 82 C14.34 82 13.68 82 13 82 C13 81.34 13 80.68 13 80 C11.515 79.505 11.515 79.505 10 79 C10 78.34 10 77.68 10 77 C8.68 77 7.36 77 6 77 C6 75.68 6 74.36 6 73 C5.34 73 4.68 73 4 73 C4 72.34 4 71.68 4 71 C3.34 71 2.68 71 2 71 C2 70.34 2 69.68 2 69 C1.34 69 0.68 69 0 69 C0 68.34 0 67.68 0 67 C-0.66 67 -1.32 67 -2 67 C-4.04169485 64.09451118 -5 62.59857954 -5 59 C-5.66 59 -6.32 59 -7 59 C-7 58.01 -7 57.02 -7 56 C-7.66 56 -8.32 56 -9 56 C-9 55.34 -9 54.68 -9 54 C-9.66 54 -10.32 54 -11 54 C-11 52.02 -11 50.04 -11 48 C-11.66 48 -12.32 48 -13 48 C-13 46.35 -13 44.7 -13 43 C-13.66 43 -14.32 43 -15 43 C-15.97083273 38.09923636 -16.18315688 33.41037688 -16.1875 28.4375 C-16.19974609 27.69564453 -16.21199219 26.95378906 -16.22460938 26.18945312 C-16.23591426 21.9576567 -15.83381615 18.89075823 -14 15 C-13.62406934 13.0075675 -13.28020455 11.0081326 -13 9 C-11.68 9 -10.36 9 -9 9 C-9 7.68 -9 6.36 -9 5 C-8.34 5 -7.68 5 -7 5 C-7 4.34 -7 3.68 -7 3 C-2.61538462 0 -2.61538462 0 0 0 Z " fill="#6D0926" transform="translate(101,81)"/>
  <path d="M0 0 C0.33 2.31 0.66 4.62 1 7 C1.66 7 2.32 7 3 7 C3 6.34 3 5.68 3 5 C3.66 5 4.32 5 5 5 C5 4.01 5 3.02 5 2 C6.60407328 1.97291433 8.2082785 1.95356517 9.8125 1.9375 C10.70582031 1.92589844 11.59914062 1.91429687 12.51953125 1.90234375 C15 2 15 2 18 3 C18 3.66 18 4.32 18 5 C18.66 5 19.32 5 20 5 C20 5.66 20 6.32 20 7 C21.32 7 22.64 7 24 7 C24 7.66 24 8.32 24 9 C25.32 9 26.64 9 28 9 C28 9.66 28 10.32 28 11 C30.31 11 32.62 11 35 11 C35 9.02 35 7.04 35 5 C35.66 5 36.32 5 37 5 C37 4.01 37 3.02 37 2 C38.98 2 40.96 2 43 2 C42.34 4.31 41.68 6.62 41 9 C40.34 9 39.68 9 39 9 C39 10.32 39 11.64 39 13 C38.34 13 37.68 13 37 13 C37 14.32 37 15.64 37 17 C36.34 17 35.68 17 35 17 C35 17.99 35 18.98 35 20 C34.34 20 33.68 20 33 20 C33 20.66 33 21.32 33 22 C28.71 22 24.42 22 20 22 C20 21.34 20 20.68 20 20 C19.113125 19.896875 18.22625 19.79375 17.3125 19.6875 C13.89409975 18.9780207 11.95842208 17.77505325 9 16 C5.80604974 15.28598768 5.80604974 15.28598768 3 15 C3.04125 15.7425 3.0825 16.485 3.125 17.25 C2.99601866 20.08758952 2.42948778 21.58773938 1 24 C-0.98 24 -2.96 24 -5 24 C-5.33 22.68 -5.66 21.36 -6 20 C-6.66 20 -7.32 20 -8 20 C-8 20.66 -8 21.32 -8 22 C-10.31 22 -12.62 22 -15 22 C-14.01 21.67 -13.02 21.34 -12 21 C-12 20.34 -12 19.68 -12 19 C-11.34 19 -10.68 19 -10 19 C-10 17.68 -10 16.36 -10 15 C-9.34 15 -8.68 15 -8 15 C-8 10.38 -8 5.76 -8 1 C-4 0 -4 0 0 0 Z " fill="#1E1817" transform="translate(158,199)"/>
  <path d="M0 0 C1.134375 0.020625 2.26875 0.04125 3.4375 0.0625 C3.7675 1.7125 4.0975 3.3625 4.4375 5.0625 C5.0975 5.0625 5.7575 5.0625 6.4375 5.0625 C6.4375 6.3825 6.4375 7.7025 6.4375 9.0625 C7.0975 9.0625 7.7575 9.0625 8.4375 9.0625 C8.4375 9.7225 8.4375 10.3825 8.4375 11.0625 C9.0975 11.0625 9.7575 11.0625 10.4375 11.0625 C10.4375 11.7225 10.4375 12.3825 10.4375 13.0625 C11.18 12.7325 11.9225 12.4025 12.6875 12.0625 C15.4375 11.0625 15.4375 11.0625 19.4375 11.0625 C19.4375 10.4025 19.4375 9.7425 19.4375 9.0625 C20.7575 9.0625 22.0775 9.0625 23.4375 9.0625 C23.4375 7.7425 23.4375 6.4225 23.4375 5.0625 C24.7575 5.0625 26.0775 5.0625 27.4375 5.0625 C27.4375 4.4025 27.4375 3.7425 27.4375 3.0625 C31.15723879 0.21799386 33.81140802 -0.2602506 38.4375 0.0625 C38.4375 1.7125 38.4375 3.3625 38.4375 5.0625 C37.7775 5.0625 37.1175 5.0625 36.4375 5.0625 C36.4375 6.3825 36.4375 7.7025 36.4375 9.0625 C35.7775 9.0625 35.1175 9.0625 34.4375 9.0625 C34.334375 9.908125 34.23125 10.75375 34.125 11.625 C33.3546146 15.47692701 32.07475486 18.50325031 30.4375 22.0625 C26.4775 22.0625 22.5175 22.0625 18.4375 22.0625 C18.7675 19.7525 19.0975 17.4425 19.4375 15.0625 C17.7875 15.3925 16.1375 15.7225 14.4375 16.0625 C14.4375 16.7225 14.4375 17.3825 14.4375 18.0625 C13.1175 18.0625 11.7975 18.0625 10.4375 18.0625 C10.4375 18.7225 10.4375 19.3825 10.4375 20.0625 C9.7775 20.0625 9.1175 20.0625 8.4375 20.0625 C8.4375 20.7225 8.4375 21.3825 8.4375 22.0625 C5.625 22.375 5.625 22.375 2.4375 22.0625 C-0.26611469 18.81816237 -0.5625 17.35357948 -0.5625 13.0625 C-2.5425 13.3925 -4.5225 13.7225 -6.5625 14.0625 C-6.5625 11.7525 -6.5625 9.4425 -6.5625 7.0625 C-5.9025 7.0625 -5.2425 7.0625 -4.5625 7.0625 C-4.583125 6.093125 -4.60375 5.12375 -4.625 4.125 C-4.53542298 -0.264274 -4.48106193 0.07861512 0 0 Z " fill="#2A2724" transform="translate(81.5625,200.9375)"/>
  <path d="M0 0 C9 1 9 1 16 3 C16 11.58 16 20.16 16 29 C7 28 7 28 0 26 C0 17.42 0 8.84 0 0 Z " fill="#570C25" transform="translate(141,115)"/>
  <path d="M0 0 C11.22 0 22.44 0 34 0 C34 0.99 34 1.98 34 3 C29.71 3 25.42 3 21 3 C21.12375 4.6396875 21.12375 4.6396875 21.25 6.3125 C21.29056908 11.96174492 19.12205657 16.84643404 17 22 C16.01 22 15.02 22 14 22 C14 22.66 14 23.32 14 24 C10.04 24 6.08 24 2 24 C2 21.36 2 18.72 2 16 C2.66 16 3.32 16 4 16 C4 15.01 4 14.02 4 13 C4.66 13 5.32 13 6 13 C6 11.02 6 9.04 6 7 C6.66 7 7.32 7 8 7 C8 5.68 8 4.36 8 3 C5.69 3 3.38 3 1 3 C0.67 2.01 0.34 1.02 0 0 Z " fill="#1C1B1B" transform="translate(217,201)"/>
  <path d="M0 0 C4.95 0 9.9 0 15 0 C15 0.66 15 1.32 15 2 C15.66 2 16.32 2 17 2 C17 3.98 17 5.96 17 8 C18.98 8 20.96 8 23 8 C23.33 6.68 23.66 5.36 24 4 C24.66 4 25.32 4 26 4 C26 3.34 26 2.68 26 2 C29.08809695 0.23537317 30.23312136 0 34 0 C34 0.99 34 1.98 34 3 C32.68 3.33 31.36 3.66 30 4 C30 4.66 30 5.32 30 6 C27 8 27 8 24 8 C23.67 9.32 23.34 10.64 23 12 C21.68 12 20.36 12 19 12 C19 12.66 19 13.32 19 14 C18.34 14 17.68 14 17 14 C17 15.65 17 17.3 17 19 C16.34 19 15.68 19 15 19 C15 20.32 15 21.64 15 23 C11.37 23 7.74 23 4 23 C4.33 21.35 4.66 19.7 5 18 C5.20291076 16.56459423 5.39170237 15.12708003 5.5625 13.6875 C5.706875 12.470625 5.85125 11.25375 6 10 C5.34 10 4.68 10 4 10 C4 8.68 4 7.36 4 6 C3.34 6 2.68 6 2 6 C2 5.34 2 4.68 2 4 C1.34 4 0.68 4 0 4 C0 2.68 0 1.36 0 0 Z " fill="#2E2B28" transform="translate(253,200)"/>
  <path d="M0 0 C3.63 0 7.26 0 11 0 C11 2.97 11 5.94 11 9 C10.34 9 9.68 9 9 9 C9 10.32 9 11.64 9 13 C8.34 13 7.68 13 7 13 C7 15.31 7 17.62 7 20 C10.63 20 14.26 20 18 20 C18 20.66 18 21.32 18 22 C10.74 22 3.48 22 -4 22 C-4 17.71 -4 13.42 -4 9 C-3.34 9 -2.68 9 -2 9 C-2 7.02 -2 5.04 -2 3 C-1.34 3 -0.68 3 0 3 C0 2.01 0 1.02 0 0 Z " fill="#2B2C28" transform="translate(124,201)"/>
  <path d="M0 0 C3.96 0 7.92 0 12 0 C12 1.65 12 3.3 12 5 C11.34 5 10.68 5 10 5 C10 7.64 10 10.28 10 13 C9.34 13 8.68 13 8 13 C8 13.66 8 14.32 8 15 C7.34 15 6.68 15 6 15 C6 17.31 6 19.62 6 22 C1.71 22 -2.58 22 -7 22 C-7 20.68 -7 19.36 -7 18 C-6.34 18 -5.68 18 -5 18 C-5 17.01 -5 16.02 -5 15 C-4.34 15 -3.68 15 -3 15 C-3 13.02 -3 11.04 -3 9 C-2.34 9 -1.68 9 -1 9 C-0.67 6.03 -0.34 3.06 0 0 Z " fill="#332F2C" transform="translate(202,201)"/>
  <path d="M0 0 C3.96 0 7.92 0 12 0 C12 1.65 12 3.3 12 5 C11.34 5 10.68 5 10 5 C10 5.66 10 6.32 10 7 C9.34 7 8.68 7 8 7 C8 8.32 8 9.64 8 11 C7.34 11 6.68 11 6 11 C6.061875 11.886875 6.12375 12.77375 6.1875 13.6875 C5.96713528 17.58061005 5.77858383 19.22141617 3 22 C-0.37055407 22.42878224 -3.62100859 22.2852807 -7 22 C-7.25 16.375 -7.25 16.375 -5 13 C-4.34 13 -3.68 13 -3 13 C-3 10.36 -3 7.72 -3 5 C-2.34 5 -1.68 5 -1 5 C-0.67 3.35 -0.34 1.7 0 0 Z " fill="#282828" transform="translate(18,201)"/>
  <path d="M0 0 C1.98 0 3.96 0 6 0 C5.34 2.31 4.68 4.62 4 7 C3.34 7 2.68 7 2 7 C2 8.32 2 9.64 2 11 C1.34 11 0.68 11 0 11 C0 12.32 0 13.64 0 15 C-0.66 15 -1.32 15 -2 15 C-2 15.99 -2 16.98 -2 18 C-2.66 18 -3.32 18 -4 18 C-4 18.66 -4 19.32 -4 20 C-5.45823212 20.0270043 -6.91660675 20.04639787 -8.375 20.0625 C-9.18710938 20.07410156 -9.99921875 20.08570313 -10.8359375 20.09765625 C-13 20 -13 20 -15 19 C-15 18.01 -15 17.02 -15 16 C-16.65 15.67 -18.3 15.34 -20 15 C-20 13.68 -20 12.36 -20 11 C-19.01 11 -18.02 11 -17 11 C-17 11.66 -17 12.32 -17 13 C-16.34 13 -15.68 13 -15 13 C-15.185625 12.236875 -15.37125 11.47375 -15.5625 10.6875 C-16 8 -16 8 -15 5 C-14.34 5 -13.68 5 -13 5 C-13 5.66 -13 6.32 -13 7 C-11.68 7 -10.36 7 -9 7 C-9 7.66 -9 8.32 -9 9 C-6.69 9 -4.38 9 -2 9 C-2 7.02 -2 5.04 -2 3 C-1.34 3 -0.68 3 0 3 C0 2.01 0 1.02 0 0 Z " fill="#1F1B18" transform="translate(195,201)"/>
  <path d="M0 0 C0 0.99 0 1.98 0 3 C-0.66 3 -1.32 3 -2 3 C-2 4.32 -2 5.64 -2 7 C-2.66 7 -3.32 7 -4 7 C-4.12375 7.845625 -4.2475 8.69125 -4.375 9.5625 C-5.02770327 13.15236798 -5.95247463 16.50824875 -7 20 C-10.63 20 -14.26 20 -18 20 C-17.67 15.71 -17.34 11.42 -17 7 C-16.34 7 -15.68 7 -15 7 C-15 6.34 -15 5.68 -15 5 C-13.68 5 -12.36 5 -11 5 C-11 4.34 -11 3.68 -11 3 C-7.63966885 -0.4947444 -4.66111848 -0.26891068 0 0 Z " fill="#21201E" transform="translate(75,201)"/>
  <path d="M0 0 C1.32 0 2.64 0 4 0 C4 0.66 4 1.32 4 2 C5.134375 2.268125 6.26875 2.53625 7.4375 2.8125 C8.613125 3.204375 9.78875 3.59625 11 4 C11.33 4.99 11.66 5.98 12 7 C14.50447516 8.21869929 14.50447516 8.21869929 17 9 C17 9.66 17 10.32 17 11 C18.65 11 20.3 11 22 11 C22 11.66 22 12.32 22 13 C19.69 13.66 17.38 14.32 15 15 C15 14.34 15 13.68 15 13 C14.34 13 13.68 13 13 13 C13 13.66 13 14.32 13 15 C12.34 15 11.68 15 11 15 C11 15.99 11 16.98 11 18 C8.69 17.67 6.38 17.34 4 17 C4 16.34 4 15.68 4 15 C3.34 15 2.68 15 2 15 C2 13.68 2 12.36 2 11 C1.34 11 0.68 11 0 11 C-1.4606285 8.35261084 -2 7.10551666 -2 4 C-1.34 3.34 -0.68 2.68 0 2 C0 1.34 0 0.68 0 0 Z " fill="#710424" transform="translate(120,152)"/>
  <path d="M0 0 C2.64 0 5.28 0 8 0 C8 0.66 8 1.32 8 2 C8.66 2 9.32 2 10 2 C10 3.32 10 4.64 10 6 C10.66 6 11.32 6 12 6 C15 10.38461538 15 10.38461538 15 13 C15.66 13 16.32 13 17 13 C17 14.32 17 15.64 17 17 C17.66 17 18.32 17 19 17 C19 18.32 19 19.64 19 21 C19.66 21 20.32 21 21 21 C21 22.65 21 24.3 21 26 C16.9814387 24.78508612 13.35787751 23.56778868 10 21 C10 19.68 10 18.36 10 17 C9.34 17 8.68 17 8 17 C8 15.68 8 14.36 8 13 C7.34 13 6.68 13 6 13 C6 12.34 6 11.68 6 11 C5.34 11 4.68 11 4 11 C3.896875 9.906875 3.79375 8.81375 3.6875 7.6875 C3.01473882 4.07905368 2.75891833 3.15915348 0 1 C0 0.67 0 0.34 0 0 Z " fill="#671F39" transform="translate(174,105)"/>
  <path d="M0 0 C1.62580966 0.11398665 3.25067157 0.24155659 4.875 0.375 C5.77992188 0.44460937 6.68484375 0.51421875 7.6171875 0.5859375 C10 1 10 1 12 3 C9.03 2.67 6.06 2.34 3 2 C3 4.97 3 7.94 3 11 C2.34 11 1.68 11 1 11 C1 12.32 1 13.64 1 15 C0.34 15 -0.32 15 -1 15 C-1 15.99 -1 16.98 -1 18 C-1.66 18 -2.32 18 -3 18 C-3 18.66 -3 19.32 -3 20 C-3.66 20 -4.32 20 -5 20 C-5 20.66 -5 21.32 -5 22 C-6.65 21.67 -8.3 21.34 -10 21 C-10.495 22.485 -10.495 22.485 -11 24 C-18.92 24 -26.84 24 -35 24 C-35 23.34 -35 22.68 -35 22 C-38.63 21.67 -42.26 21.34 -46 21 C-46 20.01 -46 19.02 -46 18 C-44.68 18 -43.36 18 -42 18 C-42 18.66 -42 19.32 -42 20 C-40.329375 19.9690625 -40.329375 19.9690625 -38.625 19.9375 C-35 20 -35 20 -33 21 C-31.52585745 21.09539628 -30.04753706 21.13073483 -28.5703125 21.1328125 C-27.69246094 21.13410156 -26.81460938 21.13539063 -25.91015625 21.13671875 C-24.99105469 21.13285156 -24.07195312 21.12898438 -23.125 21.125 C-22.21363281 21.12886719 -21.30226562 21.13273437 -20.36328125 21.13671875 C-19.48285156 21.13542969 -18.60242188 21.13414062 -17.6953125 21.1328125 C-16.4889917 21.13112061 -16.4889917 21.13112061 -15.25830078 21.12939453 C-13.04840365 21.0027734 -11.12220865 20.61146326 -9 20 C-9 19.34 -9 18.68 -9 18 C-7.68 17.67 -6.36 17.34 -5 17 C-5 15.68 -5 14.36 -5 13 C-4.34 13 -3.68 13 -3 13 C-3 11.68 -3 10.36 -3 9 C-2.34 9 -1.68 9 -1 9 C-0.67 6.03 -0.34 3.06 0 0 Z " fill="#671830" transform="translate(185,141)"/>
  <path d="M0 0 C1.134375 0.020625 2.26875 0.04125 3.4375 0.0625 C3.7675 1.7125 4.0975 3.3625 4.4375 5.0625 C5.0975 5.0625 5.7575 5.0625 6.4375 5.0625 C6.4375 6.3825 6.4375 7.7025 6.4375 9.0625 C7.0975 9.0625 7.7575 9.0625 8.4375 9.0625 C8.6875 14.6875 8.6875 14.6875 6.4375 18.0625 C6.4375 18.7225 6.4375 19.3825 6.4375 20.0625 C5.7775 20.0625 5.1175 20.0625 4.4375 20.0625 C4.1075 18.7425 3.7775 17.4225 3.4375 16.0625 C2.1175 15.7325 0.7975 15.4025 -0.5625 15.0625 C-0.5625 14.4025 -0.5625 13.7425 -0.5625 13.0625 C-2.5425 13.3925 -4.5225 13.7225 -6.5625 14.0625 C-6.5625 11.7525 -6.5625 9.4425 -6.5625 7.0625 C-5.9025 7.0625 -5.2425 7.0625 -4.5625 7.0625 C-4.583125 6.093125 -4.60375 5.12375 -4.625 4.125 C-4.53542298 -0.264274 -4.48106193 0.07861512 0 0 Z " fill="#1D1C1A" transform="translate(81.5625,200.9375)"/>
  <path d="M0 0 C0.33 2.31 0.66 4.62 1 7 C1.66 7 2.32 7 3 7 C2.01 10.3 1.02 13.6 0 17 C-0.66 17 -1.32 17 -2 17 C-2 17.99 -2 18.98 -2 20 C-2.66 20 -3.32 20 -4 20 C-4.33 21.32 -4.66 22.64 -5 24 C-5.33 22.68 -5.66 21.36 -6 20 C-6.66 20 -7.32 20 -8 20 C-8 20.66 -8 21.32 -8 22 C-10.31 22 -12.62 22 -15 22 C-14.01 21.67 -13.02 21.34 -12 21 C-12 20.34 -12 19.68 -12 19 C-11.34 19 -10.68 19 -10 19 C-10 17.68 -10 16.36 -10 15 C-9.34 15 -8.68 15 -8 15 C-8 10.38 -8 5.76 -8 1 C-4 0 -4 0 0 0 Z " fill="#BBB9B7" transform="translate(158,199)"/>
  <path d="M0 0 C2.97 0 5.94 0 9 0 C9 0.66 9 1.32 9 2 C9.66 2 10.32 2 11 2 C11 6.95 11 11.9 11 17 C7.7 17 4.4 17 1 17 C-0.53266582 13.93466836 -0.10276471 10.73245728 -0.0625 7.375 C-0.05798828 6.66859375 -0.05347656 5.9621875 -0.04882812 5.234375 C-0.03703875 3.48954725 -0.01910324 1.744763 0 0 Z " fill="#740226" transform="translate(143,120)"/>
  <path d="M0 0 C0 1.65 0 3.3 0 5 C-0.66 5 -1.32 5 -2 5 C-2 6.32 -2 7.64 -2 9 C-2.66 9 -3.32 9 -4 9 C-4.12375 9.886875 -4.2475 10.77375 -4.375 11.6875 C-4.94412736 14.70387502 -5.76614436 17.20326054 -7 20 C-7.66 18.68 -8.32 17.36 -9 16 C-9.66 16.33 -10.32 16.66 -11 17 C-11 16.34 -11 15.68 -11 15 C-11.66 15 -12.32 15 -13 15 C-13 15.99 -13 16.98 -13 18 C-13.66 18 -14.32 18 -15 18 C-15 15.69 -15 13.38 -15 11 C-15.66 11 -16.32 11 -17 11 C-17 10.34 -17 9.68 -17 9 C-16.34 9 -15.68 9 -15 9 C-15 7.68 -15 6.36 -15 5 C-13.68 5 -12.36 5 -11 5 C-11 4.34 -11 3.68 -11 3 C-7.28026121 0.15549386 -4.62609198 -0.3227506 0 0 Z " fill="#25221F" transform="translate(120,201)"/>
  <path d="M0 0 C0.36637589 6.35051546 0.36637589 6.35051546 -1.375 9.4375 C-3 11 -3 11 -5 11 C-5.0825 11.61875 -5.165 12.2375 -5.25 12.875 C-5.4975 13.57625 -5.745 14.2775 -6 15 C-6.61875 15.268125 -7.2375 15.53625 -7.875 15.8125 C-11.13795169 17.63591418 -12.02299752 20.55020583 -13 24 C-13.3379981 27.32583229 -13.28650873 30.59912857 -13.1875 33.9375 C-13.17396484 34.81212891 -13.16042969 35.68675781 -13.14648438 36.58789062 C-13.11144109 38.72553086 -13.05764541 40.86284984 -13 43 C-13.66 43 -14.32 43 -15 43 C-15.97083273 38.09923636 -16.18315688 33.41037688 -16.1875 28.4375 C-16.19974609 27.69564453 -16.21199219 26.95378906 -16.22460938 26.18945312 C-16.23591426 21.9576567 -15.83381615 18.89075823 -14 15 C-13.62406934 13.0075675 -13.28020455 11.0081326 -13 9 C-11.68 9 -10.36 9 -9 9 C-9 7.68 -9 6.36 -9 5 C-8.34 5 -7.68 5 -7 5 C-7 4.34 -7 3.68 -7 3 C-2.61538462 0 -2.61538462 0 0 0 Z " fill="#710C2C" transform="translate(101,81)"/>
  <path d="M0 0 C0.66 0 1.32 0 2 0 C2 0.66 2 1.32 2 2 C2.66 2 3.32 2 4 2 C4 3.65 4 5.3 4 7 C5.98 6.67 7.96 6.34 10 6 C10 6.66 10 7.32 10 8 C8.68 8 7.36 8 6 8 C6 8.66 6 9.32 6 10 C5.34 10 4.68 10 4 10 C4 10.99 4 11.98 4 13 C3.34 13 2.68 13 2 13 C2 13.66 2 14.32 2 15 C-3.94 15 -9.88 15 -16 15 C-15.67 12.69 -15.34 10.38 -15 8 C-15.99 8 -16.98 8 -18 8 C-18 8.66 -18 9.32 -18 10 C-19.98 9.34 -21.96 8.68 -24 8 C-24 7.34 -24 6.68 -24 6 C-22.02 6 -20.04 6 -18 6 C-18 5.34 -18 4.68 -18 4 C-17.01 4 -16.02 4 -15 4 C-15 3.34 -15 2.68 -15 2 C-14.34 2 -13.68 2 -13 2 C-13.33 5.63 -13.66 9.26 -14 13 C-10.37 13 -6.74 13 -3 13 C-2.690625 11.5975 -2.38125 10.195 -2.0625 8.75 C-1.41650906 5.82150775 -0.73989213 2.90624297 0 0 Z " fill="#8B8A88" transform="translate(71,208)"/>
  <path d="M0 0 C0.33 0 0.66 0 1 0 C1 5.61 1 11.22 1 17 C1.66 17 2.32 17 3 17 C3 17.66 3 18.32 3 19 C3.66 19 4.32 19 5 19 C5.19335938 19.60328125 5.38671875 20.2065625 5.5859375 20.828125 C5.97652344 22.02695313 5.97652344 22.02695313 6.375 23.25 C6.63023438 24.03890625 6.88546875 24.8278125 7.1484375 25.640625 C7.94112701 28.00248856 7.94112701 28.00248856 9.1015625 30.109375 C10 32 10 32 10 35 C10.66 35 11.32 35 12 35 C12 36.98 12 38.96 12 41 C11.34 40.34 10.68 39.68 10 39 C10 38.01 10 37.02 10 36 C8.35 35.67 6.7 35.34 5 35 C5 34.01 5 33.02 5 32 C4.34 32 3.68 32 3 32 C3 31.34 3 30.68 3 30 C2.34 30 1.68 30 1 30 C1 28.02 1 26.04 1 24 C0.34 24 -0.32 24 -1 24 C-1.92548953 18.73714164 -2.01685336 13.94440937 -1.625 8.625 C-1.58117187 7.90183594 -1.53734375 7.17867188 -1.4921875 6.43359375 C-1.13425868 1.13425868 -1.13425868 1.13425868 0 0 Z " fill="#620D29" transform="translate(89,105)"/>
  <path d="M0 0 C0.66 0 1.32 0 2 0 C4 2 4 2 4.1953125 3.9453125 C4.13020833 5.96354167 4.06510417 7.98177083 4 10 C3.34 10 2.68 10 2 10 C2 11.65 2 13.3 2 15 C1.01 15 0.02 15 -1 15 C-1 15.66 -1 16.32 -1 17 C-1.66 17 -2.32 17 -3 17 C-3 17.66 -3 18.32 -3 19 C-4.32 19 -5.64 19 -7 19 C-7 19.66 -7 20.32 -7 21 C-8.32 21.33 -9.64 21.66 -11 22 C-11 19.69 -11 17.38 -11 15 C-10.34 15 -9.68 15 -9 15 C-9 14.34 -9 13.68 -9 13 C-8.34 13 -7.68 13 -7 13 C-7 12.34 -7 11.68 -7 11 C-6.34 11 -5.68 11 -5 11 C-5 10.01 -5 9.02 -5 8 C-4.34 8 -3.68 8 -3 8 C-3 6.68 -3 5.36 -3 4 C-2.34 4 -1.68 4 -1 4 C-0.67 2.68 -0.34 1.36 0 0 Z " fill="#790328" transform="translate(189,148)"/>
  <path d="M0 0 C1.32 0.66 2.64 1.32 4 2 C4.33 1.67 4.66 1.34 5 1 C7.0625 1.4375 7.0625 1.4375 9 2 C8.01 2.33 7.02 2.66 6 3 C6 3.66 6 4.32 6 5 C4.68 5 3.36 5 2 5 C2 5.66 2 6.32 2 7 C1.34 7 0.68 7 0 7 C0 7.66 0 8.32 0 9 C-1.7015625 9.2165625 -1.7015625 9.2165625 -3.4375 9.4375 C-6.80777201 9.61171478 -6.80777201 9.61171478 -8 11 C-9.34267413 11.08631874 -10.68974322 11.10706473 -12.03515625 11.09765625 C-12.84404297 11.09443359 -13.65292969 11.09121094 -14.48632812 11.08789062 C-15.33646484 11.07951172 -16.18660156 11.07113281 -17.0625 11.0625 C-17.91650391 11.05798828 -18.77050781 11.05347656 -19.65039062 11.04882812 C-21.76695663 11.03700373 -23.88348685 11.01906769 -26 11 C-26 10.34 -26 9.68 -26 9 C-27.32 9 -28.64 9 -30 9 C-30 8.34 -30 7.68 -30 7 C-29.36497559 6.98541748 -28.72995117 6.97083496 -28.07568359 6.95581055 C-25.17486919 6.88094911 -22.27515794 6.78441574 -19.375 6.6875 C-17.87646484 6.65366211 -17.87646484 6.65366211 -16.34765625 6.61914062 C-10.79035081 6.41672221 -6.8716889 5.94035592 -2 3 C-1.34 3 -0.68 3 0 3 C0 2.01 0 1.02 0 0 Z " fill="#6C233A" transform="translate(180,171)"/>
  <path d="M0 0 C18.48 0 36.96 0 56 0 C56 0.33 56 0.66 56 1 C44.78 1 33.56 1 22 1 C21.67 1.99 21.34 2.98 21 4 C20.34 4 19.68 4 19 4 C19 3.01 19 2.02 19 1 C15.04 1 11.08 1 7 1 C6.67 3.97 6.34 6.94 6 10 C5.34 10 4.68 10 4 10 C4 11.98 4 13.96 4 16 C3.34 16 2.68 16 2 16 C2 16.99 2 17.98 2 19 C1.01 19.33 0.02 19.66 -1 20 C-1.33 20.99 -1.66 21.98 -2 23 C-5.63 23 -9.26 23 -13 23 C-13 22.34 -13 21.68 -13 21 C-10.03 21 -7.06 21 -4 21 C-4 20.34 -4 19.68 -4 19 C-3.34 19 -2.68 19 -2 19 C-2 18.01 -2 17.02 -2 16 C-1.34 16 -0.68 16 0 16 C0 14.68 0 13.36 0 12 C0.66 12 1.32 12 2 12 C2 10.68 2 9.36 2 8 C2.66 8 3.32 8 4 8 C4.144375 7.21625 4.28875 6.4325 4.4375 5.625 C5 3 5 3 6 1 C4.02 1 2.04 1 0 1 C0 0.67 0 0.34 0 0 Z " fill="#B5B2B0" transform="translate(195,200)"/>
  <path d="M0 0 C6.6 0 13.2 0 20 0 C20 0.33 20 0.66 20 1 C18.35 1 16.7 1 15 1 C15 1.66 15 2.32 15 3 C14.34 3 13.68 3 13 3 C13 4.65 13 6.3 13 8 C12.34 8 11.68 8 11 8 C11 9.98 11 11.96 11 14 C10.34 14 9.68 14 9 14 C8.34 16.97 7.68 19.94 7 23 C7.66 23 8.32 23 9 23 C9 23.66 9 24.32 9 25 C7.68 25 6.36 25 5 25 C4.67 24.34 4.34 23.68 4 23 C3.34 23.66 2.68 24.32 2 25 C-0.8203125 25.1953125 -0.8203125 25.1953125 -4.125 25.125 C-5.22070312 25.10695312 -6.31640625 25.08890625 -7.4453125 25.0703125 C-8.28835938 25.04710937 -9.13140625 25.02390625 -10 25 C-10 23.02 -10 21.04 -10 19 C-9.34 19 -8.68 19 -8 19 C-8 20.32 -8 21.64 -8 23 C-4.7 23 -1.4 23 2 23 C3.61064629 19.34920174 4.44894091 15.9492568 5 12 C5.66 12 6.32 12 7 12 C7 10.68 7 9.36 7 8 C7.66 8 8.32 8 9 8 C9 7.34 9 6.68 9 6 C9.66 6 10.32 6 11 6 C11 4.35 11 2.7 11 1 C7.37 1 3.74 1 0 1 C0 0.67 0 0.34 0 0 Z " fill="#B6B6B6" transform="translate(19,200)"/>
  <path d="M0 0 C7.92 0 15.84 0 24 0 C24 0.66 24 1.32 24 2 C25.32 2 26.64 2 28 2 C28 2.66 28 3.32 28 4 C30.97 4.33 33.94 4.66 37 5 C37 5.33 37 5.66 37 6 C33.37 6 29.74 6 26 6 C26 5.34 26 4.68 26 4 C16.1 4 6.2 4 -4 4 C-4 4.66 -4 5.32 -4 6 C-5.32 6 -6.64 6 -8 6 C-8 5.34 -8 4.68 -8 4 C-7.34 4 -6.68 4 -6 4 C-6 3.34 -6 2.68 -6 2 C-4.02 2 -2.04 2 0 2 C0 1.34 0 0.68 0 0 Z " fill="#85425A" transform="translate(109,75)"/>
  <path d="M0 0 C1.32 0 2.64 0 4 0 C4 0.99 4 1.98 4 3 C3.34 3 2.68 3 2 3 C2 4.98 2 6.96 2 9 C1.34 9 0.68 9 0 9 C0 12.63 0 16.26 0 20 C-0.66 20 -1.32 20 -2 20 C-2.495 17.525 -2.495 17.525 -3 15 C-4.98 19.455 -4.98 19.455 -7 24 C-11.62 24 -16.24 24 -21 24 C-21.33 22.35 -21.66 20.7 -22 19 C-23.32 19 -24.64 19 -26 19 C-26 19.99 -26 20.98 -26 22 C-27.32 22 -28.64 22 -30 22 C-30 21.34 -30 20.68 -30 20 C-29.34 20 -28.68 20 -28 20 C-28 19.34 -28 18.68 -28 18 C-26.68 18 -25.36 18 -24 18 C-24 17.34 -24 16.68 -24 16 C-22.35 15.67 -20.7 15.34 -19 15 C-19.33 17.31 -19.66 19.62 -20 22 C-16.04 22 -12.08 22 -8 22 C-7.525625 20.5975 -7.05125 19.195 -6.5625 17.75 C-6.29566406 16.96109375 -6.02882813 16.1721875 -5.75390625 15.359375 C-5.08045292 13.25178012 -4.50849405 11.15246027 -4 9 C-3.34 9 -2.68 9 -2 9 C-2 7.68 -2 6.36 -2 5 C-1.34 5 -0.68 5 0 5 C0 3.35 0 1.7 0 0 Z " fill="#C4C2C0" transform="translate(120,201)"/>
  <path d="M0 0 C1.60407328 -0.02708567 3.2082785 -0.04643483 4.8125 -0.0625 C5.70582031 -0.07410156 6.59914062 -0.08570313 7.51953125 -0.09765625 C10 0 10 0 13 1 C13 1.66 13 2.32 13 3 C9.7 2.67 6.4 2.34 3 2 C2.67 4.97 2.34 7.94 2 11 C1.34 11 0.68 11 0 11 C0 12.32 0 13.64 0 15 C-0.66 15 -1.32 15 -2 15 C-2 16.32 -2 17.64 -2 19 C-3.32 19.33 -4.64 19.66 -6 20 C-6 20.66 -6 21.32 -6 22 C-9.13498292 23.85776765 -11.37471432 24.20140476 -15 24 C-15 22.35 -15 20.7 -15 19 C-13.9275 19.020625 -12.855 19.04125 -11.75 19.0625 C-8.85209576 19.0142016 -6.71387859 18.86844115 -4 18 C-4 15.69 -4 13.38 -4 11 C-3.34 11 -2.68 11 -2 11 C-2.061875 9.39125 -2.061875 9.39125 -2.125 7.75 C-2.0074255 4.22276513 -1.65152093 2.938927 0 0 Z " fill="#FAEBF3" transform="translate(182,139)"/>
  <path d="M0 0 C0.99 0.33 1.98 0.66 3 1 C2.67 7.27 2.34 13.54 2 20 C2.66 20 3.32 20 4 20 C4 22.64 4 25.28 4 28 C3.34 28 2.68 28 2 28 C1.67 27.01 1.34 26.02 1 25 C0.01 25.33 -0.98 25.66 -2 26 C-2 25.34 -2 24.68 -2 24 C-2.66 23.67 -3.32 23.34 -4 23 C-3.34 17.72 -2.68 12.44 -2 7 C-2.99 7 -3.98 7 -5 7 C-5 6.34 -5 5.68 -5 5 C-3.35 5 -1.7 5 0 5 C0 3.35 0 1.7 0 0 Z " fill="#660423" transform="translate(101,96)"/>
  <path d="M0 0 C3.96 0 7.92 0 12 0 C12 0.66 12 1.32 12 2 C13.98 2 15.96 2 18 2 C18 11.57 18 21.14 18 31 C12.72 31 7.44 31 2 31 C-0.06257104 26.87485791 -0.23756602 25.18199862 -0.1953125 20.703125 C-0.18886719 19.49785156 -0.18242187 18.29257813 -0.17578125 17.05078125 C-0.15064453 15.16939453 -0.15064453 15.16939453 -0.125 13.25 C-0.11597656 11.98027344 -0.10695312 10.71054688 -0.09765625 9.40234375 C-0.07409087 6.26814871 -0.03822013 3.13405059 0 0 Z M1 1 C1 9.58 1 18.16 1 27 C10.90367748 30.2192645 10.90367748 30.2192645 17 30 C17 21.42 17 12.84 17 4 C7.09632252 0.7807355 7.09632252 0.7807355 1 1 Z " fill="#CFADB9" transform="translate(140,114)"/>
  <path d="M0 0 C0.66 0 1.32 0 2 0 C1.67 3.63 1.34 7.26 1 11 C0.34 11 -0.32 11 -1 11 C-1 11.66 -1 12.32 -1 13 C2.3 13 5.6 13 9 13 C9.66 10.03 10.32 7.06 11 4 C11.66 4 12.32 4 13 4 C13 3.34 13 2.68 13 2 C13.66 2 14.32 2 15 2 C14.52140759 3.60433809 14.04210442 5.20846416 13.5625 6.8125 C13.29566406 7.70582031 13.02882812 8.59914062 12.75390625 9.51953125 C12.19612127 11.35473055 11.60655425 13.18033726 11 15 C10.01 15 9.02 15 8 15 C8 15.66 8 16.32 8 17 C4.04 17 0.08 17 -4 17 C-4 14.36 -4 11.72 -4 9 C-3.34 9 -2.68 9 -2 9 C-2 8.01 -2 7.02 -2 6 C-1.34 6 -0.68 6 0 6 C0 4.02 0 2.04 0 0 Z " fill="#828280" transform="translate(223,208)"/>
  <path d="M0 0 C0.66 0 1.32 0 2 0 C2 1.32 2 2.64 2 4 C2.66 4 3.32 4 4 4 C4 5.32 4 6.64 4 8 C5.65 8 7.3 8 9 8 C8.67 8.99 8.34 9.98 8 11 C6.68 11 5.36 11 4 11 C4 11.66 4 12.32 4 13 C3.34 13 2.68 13 2 13 C2 13.66 2 14.32 2 15 C0.68 15 -0.64 15 -2 15 C-2 14.34 -2 13.68 -2 13 C-2.66 13 -3.32 13 -4 13 C-6.43160605 9.63316085 -7 8.26649636 -7 4 C-4.69 4 -2.38 4 0 4 C0 2.68 0 1.36 0 0 Z " fill="#292522" transform="translate(43,208)"/>
  <path d="M0 0 C3.3 0.33 6.6 0.66 10 1 C10.16973678 7.19539258 10.035282 12.14856425 8 18 C7.01 18 6.02 18 5 18 C5 18.66 5 19.32 5 20 C4.34 20 3.68 20 3 20 C3 18.35 3 16.7 3 15 C3.66 15 4.32 15 5 15 C4.54177532 11.53058454 4.10868317 8.32604951 3 5 C2.34 5 1.68 5 1 5 C0.67 5.66 0.34 6.32 0 7 C0 4.69 0 2.38 0 0 Z " fill="#680628" transform="translate(188,143)"/>
  <path d="M0 0 C1.4540625 0.0309375 1.4540625 0.0309375 2.9375 0.0625 C2.9375 0.7225 2.9375 1.3825 2.9375 2.0625 C3.5975 2.0625 4.2575 2.0625 4.9375 2.0625 C4.9375 2.7225 4.9375 3.3825 4.9375 4.0625 C5.5975 4.0625 6.2575 4.0625 6.9375 4.0625 C6.9375 6.7025 6.9375 9.3425 6.9375 12.0625 C4.2975 12.0625 1.6575 12.0625 -1.0625 12.0625 C-3.19753265 8.23723317 -4.56805836 5.48613568 -4.0625 1.0625 C-3.0625 0.0625 -3.0625 0.0625 0 0 Z " fill="#6F7170" transform="translate(147.0625,98.9375)"/>
  <path d="M0 0 C2.97 0 5.94 0 9 0 C9.17700355 4.60209225 9.10814567 6.78370866 7 11 C3.7 11 0.4 11 -3 11 C-3 10.34 -3 9.68 -3 9 C-2.34 9 -1.68 9 -1 9 C-0.67 6.03 -0.34 3.06 0 0 Z " fill="#181816" transform="translate(225,210)"/>
  <path d="M0 0 C6.93 0 13.86 0 21 0 C21 0.66 21 1.32 21 2 C23.97 2 26.94 2 30 2 C28.02 2.99 28.02 2.99 26 4 C25.67 4.33 25.34 4.66 25 5 C23.58429877 5.08651611 22.164405 5.10704904 20.74609375 5.09765625 C19.89208984 5.09443359 19.03808594 5.09121094 18.15820312 5.08789062 C17.26037109 5.07951172 16.36253906 5.07113281 15.4375 5.0625 C14.53580078 5.05798828 13.63410156 5.05347656 12.70507812 5.04882812 C10.46998686 5.03700225 8.23502563 5.0205222 6 5 C7.32 4.34 8.64 3.68 10 3 C6.7 2.67 3.4 2.34 0 2 C0 1.34 0 0.68 0 0 Z " fill="#680125" transform="translate(114,79)"/>
  <path d="M0 0 C0.66 0 1.32 0 2 0 C2 0.66 2 1.32 2 2 C2.763125 1.67 3.52625 1.34 4.3125 1 C7 0 7 0 10 0 C10.33 1.32 10.66 2.64 11 4 C9.35 4.33 7.7 4.66 6 5 C6 5.66 6 6.32 6 7 C4.68 7 3.36 7 2 7 C2 7.66 2 8.32 2 9 C1.34 9 0.68 9 0 9 C0 9.66 0 10.32 0 11 C-2.8125 11.3125 -2.8125 11.3125 -6 11 C-7.9375 8.625 -7.9375 8.625 -9 6 C-8.67 5.34 -8.34 4.68 -8 4 C-7.01 4.33 -6.02 4.66 -5 5 C-4.3125 7.0625 -4.3125 7.0625 -4 9 C-3.34 9 -2.68 9 -2 9 C-2.33 8.01 -2.66 7.02 -3 6 C-2.34 5.34 -1.68 4.68 -1 4 C-0.3574765 1.93125966 -0.3574765 1.93125966 0 0 Z " fill="#2C2926" transform="translate(90,212)"/>
  <path d="M0 0 C1.134375 0.020625 2.26875 0.04125 3.4375 0.0625 C3.7675 1.7125 4.0975 3.3625 4.4375 5.0625 C5.0975 5.0625 5.7575 5.0625 6.4375 5.0625 C6.4375 6.3825 6.4375 7.7025 6.4375 9.0625 C2.77083333 9.0625 -0.89583333 9.0625 -4.5625 9.0625 C-4.5625 9.7225 -4.5625 10.3825 -4.5625 11.0625 C-5.2225 11.0625 -5.8825 11.0625 -6.5625 11.0625 C-6.5625 9.7425 -6.5625 8.4225 -6.5625 7.0625 C-5.9025 7.0625 -5.2425 7.0625 -4.5625 7.0625 C-4.583125 6.093125 -4.60375 5.12375 -4.625 4.125 C-4.53542298 -0.264274 -4.48106193 0.07861512 0 0 Z " fill="#1D1D1D" transform="translate(81.5625,200.9375)"/>
  <path d="M0 0 C0.66 0 1.32 0 2 0 C2 1.32 2 2.64 2 4 C3.32 4 4.64 4 6 4 C6 4.66 6 5.32 6 6 C5.01 6.66 4.02 7.32 3 8 C-0.18259945 13.70493933 -0.37847944 18.49806495 -0.1875 24.9375 C-0.17396484 25.81212891 -0.16042969 26.68675781 -0.14648438 27.58789062 C-0.11144109 29.72553086 -0.05764541 31.86284984 0 34 C-0.66 34 -1.32 34 -2 34 C-2.97083273 29.09923636 -3.18315688 24.41037688 -3.1875 19.4375 C-3.19974609 18.69564453 -3.21199219 17.95378906 -3.22460938 17.18945312 C-3.23591426 12.9576567 -2.83381615 9.89075823 -1 6 C-0.62406934 4.0075675 -0.28020455 2.0081326 0 0 Z " fill="#7B384E" transform="translate(88,90)"/>
  <path d="M0 0 C-0.9520721 1.00596297 -1.91187346 2.00461563 -2.875 3 C-3.40867188 3.556875 -3.94234375 4.11375 -4.4921875 4.6875 C-6 6 -6 6 -8 6 C-8 5.34 -8 4.68 -8 4 C-10.64 4 -13.28 4 -16 4 C-16 3.34 -16 2.68 -16 2 C-19.96 2 -23.92 2 -28 2 C-28 1.34 -28 0.68 -28 0 C-23.70868391 -0.19619224 -19.41693898 -0.38048583 -15.125 -0.5625 C-13.90167969 -0.61857422 -12.67835938 -0.67464844 -11.41796875 -0.73242188 C-9.66806641 -0.80493164 -9.66806641 -0.80493164 -7.8828125 -0.87890625 C-6.80402832 -0.9260376 -5.72524414 -0.97316895 -4.61376953 -1.02172852 C-2 -1 -2 -1 0 0 Z " fill="#5E0722" transform="translate(173,165)"/>
  <path d="M0 0 C0.99 0 1.98 0 3 0 C2.67 2.97 2.34 5.94 2 9 C1.34 9 0.68 9 0 9 C0 10.32 0 11.64 0 13 C-0.66 13 -1.32 13 -2 13 C-2 13.99 -2 14.98 -2 16 C-2.66 16 -3.32 16 -4 16 C-4 17.32 -4 18.64 -4 20 C-6.31 20 -8.62 20 -11 20 C-10.01 19.67 -9.02 19.34 -8 19 C-8 18.34 -8 17.68 -8 17 C-7.34 17 -6.68 17 -6 17 C-6 15.68 -6 14.36 -6 13 C-5.34 13 -4.68 13 -4 13 C-4 11.02 -4 9.04 -4 7 C-3.34 7 -2.68 7 -2 7 C-2 5.68 -2 4.36 -2 3 C-1.34 3 -0.68 3 0 3 C0 2.01 0 1.02 0 0 Z " fill="#393634" transform="translate(154,201)"/>
  <path d="M0 0 C2.64 0 5.28 0 8 0 C8 0.66 8 1.32 8 2 C8.66 2 9.32 2 10 2 C10.33 4.64 10.66 7.28 11 10 C10.01 10.33 9.02 10.66 8 11 C8 11.66 8 12.32 8 13 C7.34 13 6.68 13 6 13 C6 12.34 6 11.68 6 11 C5.34 11 4.68 11 4 11 C3.896875 9.906875 3.79375 8.81375 3.6875 7.6875 C3.01473882 4.07905368 2.75891833 3.15915348 0 1 C0 0.67 0 0.34 0 0 Z " fill="#742E46" transform="translate(174,105)"/>
  <path d="M0 0 C3.8063457 0.67170806 7.35206816 1.72746564 11 3 C11 3.66 11 4.32 11 5 C12.32 5 13.64 5 15 5 C15 5.66 15 6.32 15 7 C15.66 7 16.32 7 17 7 C17 8.32 17 9.64 17 11 C14.69 10.67 12.38 10.34 10 10 C10.33 9.01 10.66 8.02 11 7 C9.35 7.33 7.7 7.66 6 8 C6 7.34 6 6.68 6 6 C3.03 5.505 3.03 5.505 0 5 C0 3.35 0 1.7 0 0 Z " fill="#5C112A" transform="translate(150,85)"/>
  <path d="M0 0 C2.97 0 5.94 0 9 0 C9 1.65 9 3.3 9 5 C8.34 5 7.68 5 7 5 C7 5.66 7 6.32 7 7 C5.35 7.33 3.7 7.66 2 8 C2.33 8.99 2.66 9.98 3 11 C2.34 11 1.68 11 1 11 C1 10.34 1 9.68 1 9 C0.34 9 -0.32 9 -1 9 C-1.33 6.69 -1.66 4.38 -2 2 C-1.34 2 -0.68 2 0 2 C0 1.34 0 0.68 0 0 Z " fill="#211F1D" transform="translate(205,201)"/>
  <path d="M0 0 C1.98 0 3.96 0 6 0 C5.34 2.31 4.68 4.62 4 7 C3.34 7 2.68 7 2 7 C2 8.32 2 9.64 2 11 C1.34 11 0.68 11 0 11 C0 12.32 0 13.64 0 15 C-0.66 15 -1.32 15 -2 15 C-2 14.34 -2 13.68 -2 13 C-2.66 13 -3.32 13 -4 13 C-4 12.34 -4 11.68 -4 11 C-4.66 11 -5.32 11 -6 11 C-6 10.34 -6 9.68 -6 9 C-4.68 9 -3.36 9 -2 9 C-2 7.02 -2 5.04 -2 3 C-1.34 3 -0.68 3 0 3 C0 2.01 0 1.02 0 0 Z " fill="#332D2A" transform="translate(195,201)"/>
  <path d="M0 0 C0.33 0 0.66 0 1 0 C1 6.93 1 13.86 1 21 C1.66 21 2.32 21 3 21 C3 23.97 3 26.94 3 30 C2.34 30 1.68 30 1 30 C1 28.02 1 26.04 1 24 C0.34 24 -0.32 24 -1 24 C-1.92548953 18.73714164 -2.01685336 13.94440937 -1.625 8.625 C-1.58117187 7.90183594 -1.53734375 7.17867188 -1.4921875 6.43359375 C-1.13425868 1.13425868 -1.13425868 1.13425868 0 0 Z " fill="#620B28" transform="translate(89,105)"/>
  <path d="M0 0 C1.98 0 3.96 0 6 0 C6 0.66 6 1.32 6 2 C6.66 2 7.32 2 8 2 C8 1.34 8 0.68 8 0 C11 1 11 1 13 2 C12.67 3.32 12.34 4.64 12 6 C11.34 6 10.68 6 10 6 C10 7.65 10 9.3 10 11 C9.34 11 8.68 11 8 11 C8 10.34 8 9.68 8 9 C7.34 9 6.68 9 6 9 C6 8.34 6 7.68 6 7 C5.34 7 4.68 7 4 7 C4 6.01 4 5.02 4 4 C3.34 4 2.68 4 2 4 C2 3.34 2 2.68 2 2 C1.34 2 0.68 2 0 2 C0 1.34 0 0.68 0 0 Z " fill="#EFDBE2" transform="translate(114,137)"/>
  <path d="M0 0 C0 1.98 0 3.96 0 6 C-0.66 6 -1.32 6 -2 6 C-2 6.66 -2 7.32 -2 8 C-2.66 8 -3.32 8 -4 8 C-4 7.34 -4 6.68 -4 6 C-4.99 6.495 -4.99 6.495 -6 7 C-6.33 7.99 -6.66 8.98 -7 10 C-7.66 10 -8.32 10 -9 10 C-9 9.34 -9 8.68 -9 8 C-9.66 8 -10.32 8 -11 8 C-11 7.01 -11 6.02 -11 5 C-10.34 5 -9.68 5 -9 5 C-9 3.68 -9 2.36 -9 1 C-6.04335481 -0.4783226 -3.25770263 -0.06032783 0 0 Z " fill="#141414" transform="translate(28,202)"/>
  <path d="M0 0 C9 1 9 1 11 3 C8.03 2.67 5.06 2.34 2 2 C2.08378906 3.40894531 2.16757813 4.81789063 2.25390625 6.26953125 C2.35707393 8.1171706 2.4599219 9.96482782 2.5625 11.8125 C2.61857422 12.74126953 2.67464844 13.67003906 2.73242188 14.62695312 C2.78076172 15.51962891 2.82910156 16.41230469 2.87890625 17.33203125 C2.9260376 18.15421143 2.97316895 18.9763916 3.02172852 19.82348633 C3 22 3 22 2 25 C2.99 25.33 3.98 25.66 5 26 C3.35 26 1.7 26 0 26 C0 17.42 0 8.84 0 0 Z " fill="#703245" transform="translate(141,115)"/>
  <path d="M0 0 C2.5 1.375 2.5 1.375 5 3 C5 3.66 5 4.32 5 5 C5.66 5 6.32 5 7 5 C7 5.66 7 6.32 7 7 C7.66 7 8.32 7 9 7 C9 7.66 9 8.32 9 9 C7.35 9.33 5.7 9.66 4 10 C4 10.66 4 11.32 4 12 C4.99 12.33 5.98 12.66 7 13 C7 14.32 7 15.64 7 17 C6.34 17 5.68 17 5 17 C5 16.34 5 15.68 5 15 C4.34 15 3.68 15 3 15 C2.67 13.68 2.34 12.36 2 11 C1.34 11 0.68 11 0 11 C0 10.34 0 9.68 0 9 C-0.66 9 -1.32 9 -2 9 C-2 8.34 -2 7.68 -2 7 C-1.01 7 -0.02 7 1 7 C0.67 4.69 0.34 2.38 0 0 Z " fill="#773149" transform="translate(171,96)"/>
  <path d="M0 0 C0.66 0 1.32 0 2 0 C1.67 3.63 1.34 7.26 1 11 C4.3 11 7.6 11 11 11 C11 11.66 11 12.32 11 13 C7.04 13 3.08 13 -1 13 C-0.67 10.69 -0.34 8.38 0 6 C-0.99 6 -1.98 6 -3 6 C-3 6.66 -3 7.32 -3 8 C-4.98 7.34 -6.96 6.68 -9 6 C-9 5.34 -9 4.68 -9 4 C-7.02 4 -5.04 4 -3 4 C-3 3.34 -3 2.68 -3 2 C-2.01 2 -1.02 2 0 2 C0 1.34 0 0.68 0 0 Z " fill="#4A4845" transform="translate(56,210)"/>
  <path d="M0 0 C6.6 0 13.2 0 20 0 C20 0.33 20 0.66 20 1 C18.35 1 16.7 1 15 1 C15 1.66 15 2.32 15 3 C14.34 3 13.68 3 13 3 C13 4.65 13 6.3 13 8 C12.34 8 11.68 8 11 8 C11 9.98 11 11.96 11 14 C9.35 14 7.7 14 6 14 C5.67 14.66 5.34 15.32 5 16 C5 14.68 5 13.36 5 12 C5.66 12 6.32 12 7 12 C7 10.68 7 9.36 7 8 C7.66 8 8.32 8 9 8 C9 7.34 9 6.68 9 6 C9.66 6 10.32 6 11 6 C11 4.35 11 2.7 11 1 C7.37 1 3.74 1 0 1 C0 0.67 0 0.34 0 0 Z " fill="#9D9D9C" transform="translate(19,200)"/>
  <path d="M0 0 C5.852795 0.51482919 11.3297637 1.45357192 17 3 C17 4.65 17 6.3 17 8 C15.35 8 13.7 8 12 8 C12 7.34 12 6.68 12 6 C10.68 6 9.36 6 8 6 C8 5.34 8 4.68 8 4 C6.02 4 4.04 4 2 4 C2 3.34 2 2.68 2 2 C1.34 2 0.68 2 0 2 C0 1.34 0 0.68 0 0 Z " fill="#66132D" transform="translate(133,172)"/>
  <path d="M0 0 C0.66 0 1.32 0 2 0 C2 1.98 2 3.96 2 6 C2.66 6 3.32 6 4 6 C4 8.31 4 10.62 4 13 C5.32 13 6.64 13 8 13 C8.33 14.98 8.66 16.96 9 19 C8.01 19 7.02 19 6 19 C5.34 17.68 4.68 16.36 4 15 C2.68 15 1.36 15 0 15 C0 10.05 0 5.1 0 0 Z " fill="#74253F" transform="translate(105,120)"/>
  <path d="M0 0 C0.99 0 1.98 0 3 0 C2.67 2.31 2.34 4.62 2 7 C7.94 7 13.88 7 20 7 C20 6.34 20 5.68 20 5 C20.66 5 21.32 5 22 5 C22 4.01 22 3.02 22 2 C22.66 2 23.32 2 24 2 C24 3.32 24 4.64 24 6 C23.34 6 22.68 6 22 6 C22 6.99 22 7.98 22 9 C15.07 9 8.14 9 1 9 C0.67 6.03 0.34 3.06 0 0 Z " fill="#C2C0BE" transform="translate(53,216)"/>
  <path d="M0 0 C1.32 0 2.64 0 4 0 C4 0.66 4 1.32 4 2 C6.97 2 9.94 2 13 2 C13 2.66 13 3.32 13 4 C18.61 4 24.22 4 30 4 C30 4.66 30 5.32 30 6 C23.73 6 17.46 6 11 6 C11 5.34 11 4.68 11 4 C8.36 4 5.72 4 3 4 C3 3.34 3 2.68 3 2 C2.01 2 1.02 2 0 2 C0 1.34 0 0.68 0 0 Z " fill="#DDBDCA" transform="translate(141,178)"/>
  <path d="M0 0 C3.3 0.33 6.6 0.66 10 1 C10 2.98 10 4.96 10 7 C12.97 7 15.94 7 19 7 C19 6.01 19 5.02 19 4 C19.66 4 20.32 4 21 4 C21 5.65 21 7.3 21 9 C20.34 9 19.68 9 19 9 C19 9.66 19 10.32 19 11 C18.34 11 17.68 11 17 11 C17 10.34 17 9.68 17 9 C15.329375 9.2784375 15.329375 9.2784375 13.625 9.5625 C10 10 10 10 8 9 C8 7.02 8 5.04 8 3 C5.69 3 3.38 3 1 3 C0.67 2.01 0.34 1.02 0 0 Z " fill="#2F2F2E" transform="translate(217,201)"/>
  <path d="M0 0 C0.66 0 1.32 0 2 0 C2.33 0.99 2.66 1.98 3 3 C3.99 3.33 4.98 3.66 6 4 C6 5.32 6 6.64 6 8 C4.02 8.33 2.04 8.66 0 9 C0 10.98 0 12.96 0 15 C-1.32 15 -2.64 15 -4 15 C-4.20140476 11.37471432 -3.85776765 9.13498292 -2 6 C-1.34 6 -0.68 6 0 6 C0 4.02 0 2.04 0 0 Z " fill="#4A4847" transform="translate(30,208)"/>
  <path d="M0 0 C0.99 0 1.98 0 3 0 C3 8.58 3 17.16 3 26 C0.03 25.67 -2.94 25.34 -6 25 C-6 24.67 -6 24.34 -6 24 C-3.69 24 -1.38 24 1 24 C0.67 16.08 0.34 8.16 0 0 Z " fill="#895265" transform="translate(154,118)"/>
  <path d="M0 0 C0 1.65 0 3.3 0 5 C-0.66 5 -1.32 5 -2 5 C-2 6.32 -2 7.64 -2 9 C-2.66 9 -3.32 9 -4 9 C-4 7.02 -4 5.04 -4 3 C-4.99 3.33 -5.98 3.66 -7 4 C-6.67 4.99 -6.34 5.98 -6 7 C-6.33 7.66 -6.66 8.32 -7 9 C-8.33333333 8.33333333 -9.66666667 7.66666667 -11 7 C-12.32 7 -13.64 7 -15 7 C-15 6.34 -15 5.68 -15 5 C-13.68 5 -12.36 5 -11 5 C-11 4.34 -11 3.68 -11 3 C-7.28026121 0.15549386 -4.62609198 -0.3227506 0 0 Z " fill="#302F2C" transform="translate(120,201)"/>
  <path d="M0 0 C1.62580966 0.11398665 3.25067157 0.24155659 4.875 0.375 C5.77992188 0.44460937 6.68484375 0.51421875 7.6171875 0.5859375 C10 1 10 1 12 3 C9.03 2.67 6.06 2.34 3 2 C3 4.97 3 7.94 3 11 C1.68 11 0.36 11 -1 11 C-1 11.66 -1 12.32 -1 13 C-1.66 13 -2.32 13 -3 13 C-3 11.68 -3 10.36 -3 9 C-2.34 9 -1.68 9 -1 9 C-0.67 6.03 -0.34 3.06 0 0 Z " fill="#8B4A5F" transform="translate(185,141)"/>
  <path d="M0 0 C0 0.99 0 1.98 0 3 C-1.32 3.33 -2.64 3.66 -4 4 C-4 4.66 -4 5.32 -4 6 C-7 8 -7 8 -10 8 C-10.33 9.32 -10.66 10.64 -11 12 C-11.99 12 -12.98 12 -14 12 C-14.33 10.68 -14.66 9.36 -15 8 C-13.68 8 -12.36 8 -11 8 C-10.67 6.68 -10.34 5.36 -10 4 C-9.34 4 -8.68 4 -8 4 C-8 3.34 -8 2.68 -8 2 C-4.91190305 0.23537317 -3.76687864 0 0 0 Z " fill="#707070" transform="translate(287,200)"/>
  <path d="M0 0 C0.66 1.65 1.32 3.3 2 5 C2.66 5 3.32 5 4 5 C4 5.66 4 6.32 4 7 C5.32 7 6.64 7 8 7 C8 7.66 8 8.32 8 9 C6.02 9 4.04 9 2 9 C2 8.34 2 7.68 2 7 C1.34 7 0.68 7 0 7 C-0.33 6.34 -0.66 5.68 -1 5 C-1.99 5.495 -1.99 5.495 -3 6 C-5.125 5.5625 -5.125 5.5625 -7 5 C-7 3.68 -7 2.36 -7 1 C-4.53721199 -0.231394 -2.7204945 -0.07159196 0 0 Z " fill="#E1DEDB" transform="translate(37,216)"/>
  <path d="M0 0 C1.32 0 2.64 0 4 0 C4 0.99 4 1.98 4 3 C3.34 3 2.68 3 2 3 C2 4.98 2 6.96 2 9 C1.34 9 0.68 9 0 9 C0 12.63 0 16.26 0 20 C-0.66 20 -1.32 20 -2 20 C-2 17.03 -2 14.06 -2 11 C-2.66 11 -3.32 11 -4 11 C-4 10.34 -4 9.68 -4 9 C-3.34 9 -2.68 9 -2 9 C-2 7.68 -2 6.36 -2 5 C-1.34 5 -0.68 5 0 5 C0 3.35 0 1.7 0 0 Z " fill="#A3A19D" transform="translate(120,201)"/>
  <path d="M0 0 C1.32 0 2.64 0 4 0 C4 0.66 4 1.32 4 2 C5.670625 1.9690625 5.670625 1.9690625 7.375 1.9375 C11 2 11 2 13 3 C15.204364 3.22950319 17.41392173 3.41075933 19.625 3.5625 C20.81351563 3.64628906 22.00203125 3.73007813 23.2265625 3.81640625 C24.59941406 3.90728516 24.59941406 3.90728516 26 4 C26 4.66 26 5.32 26 6 C21.05 6 16.1 6 11 6 C11 5.34 11 4.68 11 4 C7.37 3.67 3.74 3.34 0 3 C0 2.01 0 1.02 0 0 Z " fill="#C496A4" transform="translate(139,159)"/>
  <path d="M0 0 C0.66 0 1.32 0 2 0 C1.67 1.65 1.34 3.3 1 5 C4.3 5 7.6 5 11 5 C11 4.34 11 3.68 11 3 C12.98 2.67 14.96 2.34 17 2 C17 2.66 17 3.32 17 4 C16.34 4 15.68 4 15 4 C15 4.66 15 5.32 15 6 C15.66 6.66 16.32 7.32 17 8 C15.02 8.33 13.04 8.66 11 9 C11 8.34 11 7.68 11 7 C7.37 7 3.74 7 0 7 C0 4.69 0 2.38 0 0 Z " fill="#AEAFAA" transform="translate(131,214)"/>
  <path d="M0 0 C0.33 0.99 0.66 1.98 1 3 C3.31 3 5.62 3 8 3 C8 3.33 8 3.66 8 4 C6.02 4.33 4.04 4.66 2 5 C1.67 6.98 1.34 8.96 1 11 C0.34 11 -0.32 11 -1 11 C-1 11.66 -1 12.32 -1 13 C-1.66 13 -2.32 13 -3 13 C-3 11.02 -3 9.04 -3 7 C-2.34 7 -1.68 7 -1 7 C-1 6.01 -1 5.02 -1 4 C-3.64 4.33 -6.28 4.66 -9 5 C-9 4.34 -9 3.68 -9 3 C-6.03 2.01 -3.06 1.02 0 0 Z " fill="#B1B1B1" transform="translate(76,197)"/>
  <path d="M0 0 C0.33 0 0.66 0 1 0 C1.02505615 0.79696289 1.0501123 1.59392578 1.07592773 2.41503906 C1.19198789 6.02685222 1.31466931 9.63841102 1.4375 13.25 C1.47681641 14.50425781 1.51613281 15.75851563 1.55664062 17.05078125 C1.59853516 18.25605469 1.64042969 19.46132812 1.68359375 20.703125 C1.72025146 21.81333008 1.75690918 22.92353516 1.79467773 24.06738281 C1.96710904 26.53021849 2.29595439 28.64482965 3 31 C4.32 31 5.64 31 7 31 C7 31.99 7 32.98 7 34 C5.35 34 3.7 34 2 34 C2 33.34 2 32.68 2 32 C1.34 32 0.68 32 0 32 C0 21.44 0 10.88 0 0 Z " fill="#FBE7EE" transform="translate(139,114)"/>
  <path d="M0 0 C6.85152417 0.70877836 12.62024762 2.37304314 19 5 C19 5.99 19 6.98 19 8 C19.66 8.33 20.32 8.66 21 9 C19.68 9 18.36 9 17 9 C17 8.34 17 7.68 17 7 C16.113125 6.896875 15.22625 6.79375 14.3125 6.6875 C10.89409975 5.9780207 8.95842208 4.77505325 6 3 C2.80604974 2.28598768 2.80604974 2.28598768 0 2 C0 1.34 0 0.68 0 0 Z " fill="#5B5754" transform="translate(161,212)"/>
  <path d="M0 0 C1.32 0 2.64 0 4 0 C4 0.66 4 1.32 4 2 C5.32 2.33 6.64 2.66 8 3 C8 3.99 8 4.98 8 6 C11.63 6.33 15.26 6.66 19 7 C19 7.66 19 8.32 19 9 C16.36 9 13.72 9 11 9 C11 8.34 11 7.68 11 7 C9.35 7 7.7 7 6 7 C6 6.34 6 5.68 6 5 C4.35 4.67 2.7 4.34 1 4 C0.67 2.68 0.34 1.36 0 0 Z " fill="#621730" transform="translate(131,156)"/>
  <path d="M0 0 C2.97 0 5.94 0 9 0 C9 0.66 9 1.32 9 2 C6.69 2.66 4.38 3.32 2 4 C2 7.63 2 11.26 2 15 C3.65 15 5.3 15 7 15 C7 15.66 7 16.32 7 17 C5.02 17 3.04 17 1 17 C-0.53266582 13.93466836 -0.10276471 10.73245728 -0.0625 7.375 C-0.05798828 6.66859375 -0.05347656 5.9621875 -0.04882812 5.234375 C-0.03703875 3.48954725 -0.01910324 1.744763 0 0 Z " fill="#680422" transform="translate(143,120)"/>
  <path d="M0 0 C0.33 0 0.66 0 1 0 C1.19818283 6.70518586 1.30844801 12.65176798 -1 19 C-1.66 19 -2.32 19 -3 19 C-3 20.32 -3 21.64 -3 23 C-3.66 23 -4.32 23 -5 23 C-5 23.66 -5 24.32 -5 25 C-5.66 25 -6.32 25 -7 25 C-7 23.02 -7 21.04 -7 19 C-6.34 19 -5.68 19 -5 19 C-5 18.34 -5 17.68 -5 17 C-4.01 17 -3.02 17 -2 17 C-1.1400133 11.34865884 -0.5381371 5.69051363 0 0 Z " fill="#723449" transform="translate(198,144)"/>
  <path d="M0 0 C1.8591451 3.13730736 2.36368085 5.3631915 2 9 C1 11.3125 1 11.3125 0 13 C-1.65 13 -3.3 13 -5 13 C-5 11.68 -5 10.36 -5 9 C-4.34 9 -3.68 9 -3 9 C-3 8.01 -3 7.02 -3 6 C-2.34 6 -1.68 6 -1 6 C-0.67 4.02 -0.34 2.04 0 0 Z " fill="#474441" transform="translate(159,210)"/>
  <path d="M0 0 C0.99 0.33 1.98 0.66 3 1 C3 2.32 3 3.64 3 5 C2.34 5 1.68 5 1 5 C1 9.95 1 14.9 1 20 C0.34 20 -0.32 20 -1 20 C-1.02888514 16.85418577 -1.04675923 13.70840531 -1.0625 10.5625 C-1.07087891 9.66466797 -1.07925781 8.76683594 -1.08789062 7.84179688 C-1.09111328 6.98779297 -1.09433594 6.13378906 -1.09765625 5.25390625 C-1.10551147 4.06776733 -1.10551147 4.06776733 -1.11352539 2.85766602 C-1 1 -1 1 0 0 Z " fill="#7A3A50" transform="translate(104,96)"/>
  <path d="M0 0 C1.98 0 3.96 0 6 0 C6 5.28 6 10.56 6 16 C5.34 16 4.68 16 4 16 C4 16.99 4 17.98 4 19 C3.34 19 2.68 19 2 19 C2.66 13.39 3.32 7.78 4 2 C2.68 1.34 1.36 0.68 0 0 Z " fill="#E7CAD7" transform="translate(195,142)"/>
  <path d="M0 0 C1.32 0 2.64 0 4 0 C4 0.66 4 1.32 4 2 C5.32 2 6.64 2 8 2 C8 3.32 8 4.64 8 6 C8.66 6 9.32 6 10 6 C10 6.66 10 7.32 10 8 C10.66 8 11.32 8 12 8 C12 8.66 12 9.32 12 10 C10.68 10 9.36 10 8 10 C8 9.34 8 8.68 8 8 C7.34 8 6.68 8 6 8 C6 7.34 6 6.68 6 6 C5.34 6 4.68 6 4 6 C4 5.34 4 4.68 4 4 C3.34 4 2.68 4 2 4 C2 3.34 2 2.68 2 2 C1.34 2 0.68 2 0 2 C0 1.34 0 0.68 0 0 Z " fill="#874457" transform="translate(114,161)"/>
  <path d="M0 0 C3.3 0.99 6.6 1.98 10 3 C10 3.66 10 4.32 10 5 C10.99 5 11.98 5 13 5 C13 5.66 13 6.32 13 7 C10.03 6.01 7.06 5.02 4 4 C4 4.66 4 5.32 4 6 C4.66 6.33 5.32 6.66 6 7 C5.34 7 4.68 7 4 7 C4 7.66 4 8.32 4 9 C2.68 9 1.36 9 0 9 C0 8.34 0 7.68 0 7 C0.66 7 1.32 7 2 7 C2 5.68 2 4.36 2 3 C1.34 2.67 0.68 2.34 0 2 C0 1.34 0 0.68 0 0 Z " fill="#803E55" transform="translate(146,81)"/>
  <path d="M0 0 C0 0.66 0 1.32 0 2 C-1.32 2.33 -2.64 2.66 -4 3 C-4 3.66 -4 4.32 -4 5 C-7.13498292 6.85776765 -9.37471432 7.20140476 -13 7 C-13 5.35 -13 3.7 -13 2 C-11.39125 2.061875 -11.39125 2.061875 -9.75 2.125 C-5.99514419 1.99983814 -3.47124701 0 0 0 Z " fill="#E2BCCA" transform="translate(180,156)"/>
  <path d="M0 0 C3.96 0 7.92 0 12 0 C12 1.65 12 3.3 12 5 C11.34 5 10.68 5 10 5 C10 3.68 10 2.36 10 1 C5.545 1.495 5.545 1.495 1 2 C1 3.32 1 4.64 1 6 C0.34 6 -0.32 6 -1 6 C-1 6.99 -1 7.98 -1 9 C-1.66 9 -2.32 9 -3 9 C-3 7.68 -3 6.36 -3 5 C-2.34 5 -1.68 5 -1 5 C-0.67 3.35 -0.34 1.7 0 0 Z " fill="#5A5A59" transform="translate(18,201)"/>
  <path d="M0 0 C1.32 0 2.64 0 4 0 C4 2.97 4 5.94 4 9 C2.02253397 9.73080266 0.01927511 10.39421747 -2 11 C-2.66 10.67 -3.32 10.34 -4 10 C-4 9.01 -4 8.02 -4 7 C-2.02 7.66 -0.04 8.32 2 9 C2 7.35 2 5.7 2 4 C1.34 4 0.68 4 0 4 C0 2.68 0 1.36 0 0 Z " fill="#EDDBE4" transform="translate(193,122)"/>
  <path d="M0 0 C0.99 0 1.98 0 3 0 C2.67 2.97 2.34 5.94 2 9 C1.34 9 0.68 9 0 9 C-0.33 10.32 -0.66 11.64 -1 13 C-1.33 11.68 -1.66 10.36 -2 9 C-2.66 9 -3.32 9 -4 9 C-4 8.34 -4 7.68 -4 7 C-3.34 7 -2.68 7 -2 7 C-2 6.01 -2 5.02 -2 4 C-1.34 4 -0.68 4 0 4 C0 2.68 0 1.36 0 0 Z " fill="#C9C5C2" transform="translate(154,210)"/>
  <path d="M0 0 C0 0.99 0 1.98 0 3 C-0.66 3 -1.32 3 -2 3 C-2 4.32 -2 5.64 -2 7 C-2.66 7 -3.32 7 -4 7 C-4 5.35 -4 3.7 -4 2 C-4.99 2.495 -4.99 2.495 -6 3 C-6 3.66 -6 4.32 -6 5 C-7.65 5 -9.3 5 -11 5 C-11 3 -11 3 -9.4375 1.375 C-6.19319567 -0.45512039 -3.66275561 -0.21131282 0 0 Z " fill="#3B3B3B" transform="translate(75,201)"/>
  <path d="M0 0 C1.65 0 3.3 0 5 0 C5.22084624 6.09781001 5.01167675 11.21642935 3 17 C2.67 17 2.34 17 2 17 C2 14.03 2 11.06 2 8 C2.66 8 3.32 8 4 8 C4 6.68 4 5.36 4 4 C2.68 4 1.36 4 0 4 C0 2.68 0 1.36 0 0 Z " fill="#510C23" transform="translate(193,144)"/>
  <path d="M0 0 C1.588125 -0.020625 3.17625 -0.04125 4.8125 -0.0625 C5.70582031 -0.07410156 6.59914062 -0.08570313 7.51953125 -0.09765625 C10 0 10 0 13 1 C13 1.66 13 2.32 13 3 C9.7 2.67 6.4 2.34 3 2 C2.67 4.97 2.34 7.94 2 11 C1.67 11 1.34 11 1 11 C0.67 7.37 0.34 3.74 0 0 Z " fill="#EFD8E3" transform="translate(182,139)"/>
  <path d="M0 0 C2.31 0 4.62 0 7 0 C7 0.66 7 1.32 7 2 C2.61538462 5 2.61538462 5 0 5 C0 5.66 0 6.32 0 7 C-0.66 7 -1.32 7 -2 7 C-2 8.32 -2 9.64 -2 11 C-2.66 11 -3.32 11 -4 11 C-3.67 8.69 -3.34 6.38 -3 4 C-2.01 3.67 -1.02 3.34 0 3 C0 2.01 0 1.02 0 0 Z " fill="#E6C4CF" transform="translate(94,79)"/>
  <path d="M0 0 C0.66 0 1.32 0 2 0 C2 0.66 2 1.32 2 2 C2.66 2 3.32 2 4 2 C4 2.99 4 3.98 4 5 C4.66 5 5.32 5 6 5 C6 5.66 6 6.32 6 7 C6.66 7 7.32 7 8 7 C8 7.66 8 8.32 8 9 C6.02 9 4.04 9 2 9 C2 8.34 2 7.68 2 7 C1.34 7 0.68 7 0 7 C0 4.69 0 2.38 0 0 Z " fill="#71253A" transform="translate(114,139)"/>
  <path d="M0 0 C2.31 0 4.62 0 7 0 C7 0.66 7 1.32 7 2 C8.32 2 9.64 2 11 2 C11 2.66 11 3.32 11 4 C6.98195309 4.84098656 3.98196457 5.05404945 0 4 C0 2.68 0 1.36 0 0 Z " fill="#F3D7E3" transform="translate(139,88)"/>
  <path d="M0 0 C2.31 0.33 4.62 0.66 7 1 C7 1.66 7 2.32 7 3 C7.66 3 8.32 3 9 3 C9 3.66 9 4.32 9 5 C10.98 5 12.96 5 15 5 C15 5.66 15 6.32 15 7 C11.7 6.67 8.4 6.34 5 6 C5 5.01 5 4.02 5 3 C2.525 2.01 2.525 2.01 0 1 C0 0.67 0 0.34 0 0 Z " fill="#CA9EAB" transform="translate(126,171)"/>
  <path d="M0 0 C0.66 0 1.32 0 2 0 C2 1.32 2 2.64 2 4 C1.34 4 0.68 4 0 4 C0 4.99 0 5.98 0 7 C-0.66 7 -1.32 7 -2 7 C-2.66 10.63 -3.32 14.26 -4 18 C-4.33 18 -4.66 18 -5 18 C-5.55797683 11.30427803 -4.61897757 6.69734622 -1 1 C-0.67 0.67 -0.34 0.34 0 0 Z " fill="#640221" transform="translate(92,96)"/>
  <path d="M0 0 C1.65 0 3.3 0 5 0 C5 0.99 5 1.98 5 3 C4.34 3 3.68 3 3 3 C3 3.99 3 4.98 3 6 C0.03 6 -2.94 6 -6 6 C-6 5.34 -6 4.68 -6 4 C-4.02 3.67 -2.04 3.34 0 3 C0 2.01 0 1.02 0 0 Z " fill="#131313" transform="translate(233,202)"/>
  <path d="M0 0 C0.66 0 1.32 0 2 0 C2.33 1.65 2.66 3.3 3 5 C2.01 4.67 1.02 4.34 0 4 C0.33 5.65 0.66 7.3 1 9 C0.01 9 -0.98 9 -2 9 C-2 9.66 -2 10.32 -2 11 C-2.66 11 -3.32 11 -4 11 C-4 9.68 -4 8.36 -4 7 C-3.34 7 -2.68 7 -2 7 C-2 5.35 -2 3.7 -2 2 C-1.34 2 -0.68 2 0 2 C0 1.34 0 0.68 0 0 Z " fill="#F1D1DE" transform="translate(109,94)"/>
  <path d="M0 0 C0.99 0 1.98 0 3 0 C3 0.99 3 1.98 3 3 C2.01 3 1.02 3 0 3 C0 3.66 0 4.32 0 5 C-0.66 5 -1.32 5 -2 5 C-2 6.32 -2 7.64 -2 9 C-3.32 9 -4.64 9 -6 9 C-6 7.68 -6 6.36 -6 5 C-5.34 5 -4.68 5 -4 5 C-4 4.34 -4 3.68 -4 3 C-2.68 2.67 -1.36 2.34 0 2 C0 1.34 0 0.68 0 0 Z " fill="#580A22" transform="translate(96,85)"/>
  <path d="M0 0 C0.66 0 1.32 0 2 0 C2 1.32 2 2.64 2 4 C5.63 4 9.26 4 13 4 C13 4.66 13 5.32 13 6 C8.71 6 4.42 6 0 6 C0 4.02 0 2.04 0 0 Z " fill="#C9C8C6" transform="translate(255,219)"/>
  <path d="M0 0 C6.6 0 13.2 0 20 0 C20 0.33 20 0.66 20 1 C18.35 1 16.7 1 15 1 C15 1.66 15 2.32 15 3 C14.34 3 13.68 3 13 3 C13 3.99 13 4.98 13 6 C12.34 6 11.68 6 11 6 C11 4.35 11 2.7 11 1 C7.37 1 3.74 1 0 1 C0 0.67 0 0.34 0 0 Z " fill="#B7B6B4" transform="translate(19,200)"/>
  <path d="M0 0 C0.66 0 1.32 0 2 0 C2 1.32 2 2.64 2 4 C5.63 4 9.26 4 13 4 C12.67 4.66 12.34 5.32 12 6 C8.04 6 4.08 6 0 6 C0 4.02 0 2.04 0 0 Z " fill="#BCBCBC" transform="translate(9,219)"/>
  <path d="M0 0 C0.33 0 0.66 0 1 0 C1 1.65 1 3.3 1 5 C2.32 5 3.64 5 5 5 C5 5.66 5 6.32 5 7 C2.69 7 0.38 7 -2 7 C-2 6.34 -2 5.68 -2 5 C-3.32 5 -4.64 5 -6 5 C-6 4.34 -6 3.68 -6 3 C-4.35 3 -2.7 3 -1 3 C-0.67 2.01 -0.34 1.02 0 0 Z " fill="#D2CCC9" transform="translate(188,203)"/>
  <path d="M0 0 C0.66 0 1.32 0 2 0 C2 0.66 2 1.32 2 2 C2.99 1.34 3.98 0.68 5 0 C7.6875 -0.125 7.6875 -0.125 10 0 C7.69905075 2.74343949 6.3914126 3.89823272 2.875 4.8125 C0 5 0 5 -2 4 C-2 3.34 -2 2.68 -2 2 C-1.34 2 -0.68 2 0 2 C0 1.34 0 0.68 0 0 Z " fill="#80032B" transform="translate(133,165)"/>
  <path d="M0 0 C0.66 0 1.32 0 2 0 C2 0.66 2 1.32 2 2 C2.66 2 3.32 2 4 2 C4 2.66 4 3.32 4 4 C2.35 3.67 0.7 3.34 -1 3 C-1.33 3.99 -1.66 4.98 -2 6 C-4.97 6 -7.94 6 -11 6 C-11 5.34 -11 4.68 -11 4 C-9.9275 3.855625 -8.855 3.71125 -7.75 3.5625 C-5.08337051 3.16250558 -2.58600271 2.72408076 0 2 C0 1.34 0 0.68 0 0 Z " fill="#782E45" transform="translate(176,159)"/>
  <path d="M0 0 C0.66 0 1.32 0 2 0 C2.33 0.99 2.66 1.98 3 3 C2.67 3.66 2.34 4.32 2 5 C2.66 5 3.32 5 4 5 C4 5.66 4 6.32 4 7 C4.66 7 5.32 7 6 7 C6 7.66 6 8.32 6 9 C4.68 8.67 3.36 8.34 2 8 C2 7.34 2 6.68 2 6 C0.68 6 -0.64 6 -2 6 C-2 5.34 -2 4.68 -2 4 C-2.66 4 -3.32 4 -4 4 C-4 3.34 -4 2.68 -4 2 C-2.68 2 -1.36 2 0 2 C0 1.34 0 0.68 0 0 Z " fill="#DEBEC8" transform="translate(133,150)"/>
  <path d="M0 0 C0.33 0 0.66 0 1 0 C1 1.65 1 3.3 1 5 C1.66 5 2.32 5 3 5 C3 7.64 3 10.28 3 13 C2.34 13 1.68 13 1 13 C1 11.68 1 10.36 1 9 C0.34 9 -0.32 9 -1 9 C-1.09765625 2.84765625 -1.09765625 2.84765625 -1 1 C-0.67 0.67 -0.34 0.34 0 0 Z " fill="#5D122C" transform="translate(102,111)"/>
  <path d="M0 0 C-0.33 2.31 -0.66 4.62 -1 7 C-1.66 6.01 -2.32 5.02 -3 4 C-4.32 4 -5.64 4 -7 4 C-7 4.99 -7 5.98 -7 7 C-8.32 7 -9.64 7 -11 7 C-11 6.34 -11 5.68 -11 5 C-10.34 5 -9.68 5 -9 5 C-9 4.34 -9 3.68 -9 3 C-7.68 3 -6.36 3 -5 3 C-5 2.34 -5 1.68 -5 1 C-3 0 -3 0 0 0 Z " fill="#B1AEAB" transform="translate(101,216)"/>
  <path d="M0 0 C1.125 3.75 1.125 3.75 0 6 C-0.66 6 -1.32 6 -2 6 C-2 4.68 -2 3.36 -2 2 C-2.99 2.495 -2.99 2.495 -4 3 C-4.33 3.99 -4.66 4.98 -5 6 C-5.66 6 -6.32 6 -7 6 C-6.625 3.0625 -6.625 3.0625 -6 0 C-3.50907189 -1.24546405 -2.58919267 -0.7767578 0 0 Z " fill="#2F2B2A" transform="translate(167,204)"/>
  <path d="M0 0 C3 0 3 0 4.6875 1.375 C6 3 6 3 6 5 C6.66 5 7.32 5 8 5 C8 5.66 8 6.32 8 7 C6.35 7 4.7 7 3 7 C3 6.01 3 5.02 3 4 C1.68 4.33 0.36 4.66 -1 5 C-0.67 3.35 -0.34 1.7 0 0 Z " fill="#E1BDCA" transform="translate(108,158)"/>
  <path d="M0 0 C0.33 0.66 0.66 1.32 1 2 C1.66 2 2.32 2 3 2 C3 2.66 3 3.32 3 4 C3.66 4 4.32 4 5 4 C5 4.66 5 5.32 5 6 C5.66 6 6.32 6 7 6 C7 6.66 7 7.32 7 8 C7.66 8 8.32 8 9 8 C9 8.66 9 9.32 9 10 C7.68 10 6.36 10 5 10 C5 9.34 5 8.68 5 8 C4.34 8 3.68 8 3 8 C3 7.34 3 6.68 3 6 C2.34 6 1.68 6 1 6 C0.67 4.02 0.34 2.04 0 0 Z " fill="#520D21" transform="translate(102,146)"/>
  <path d="M0 0 C4.67461851 -0.32613618 7.16674383 0.29417212 11 3 C7.18510326 4.46726798 4.70988378 3.43336419 1 2 C0.87625 2.78375 0.7525 3.5675 0.625 4.375 C0 7 0 7 -2 9 C-1.34 6.03 -0.68 3.06 0 0 Z " fill="#CCC9C6" transform="translate(161,214)"/>
  <path d="M0 0 C0.66 0 1.32 0 2 0 C1.52140759 1.60433809 1.04210442 3.20846416 0.5625 4.8125 C0.29566406 5.70582031 0.02882812 6.59914062 -0.24609375 7.51953125 C-0.80387873 9.35473055 -1.39344575 11.18033726 -2 13 C-2.66 13 -3.32 13 -4 13 C-4.24042276 8.91281305 -3.42258812 5.82320557 -2 2 C-1.34 2 -0.68 2 0 2 C0 1.34 0 0.68 0 0 Z " fill="#9F9F9D" transform="translate(236,210)"/>
  <path d="M0 0 C1.32 0 2.64 0 4 0 C4 0.99 4 1.98 4 3 C5.32 2.67 6.64 2.34 8 2 C8 2.99 8 3.98 8 5 C6.88625 4.979375 5.7725 4.95875 4.625 4.9375 C1.16784079 4.73619282 1.16784079 4.73619282 -1 6 C-0.67 4.02 -0.34 2.04 0 0 Z " fill="#F1F2EF" transform="translate(193,195)"/>
  <path d="M0 0 C2.64 0.33 5.28 0.66 8 1 C8 2.65 8 4.3 8 6 C6.35 6 4.7 6 3 6 C2.814375 5.071875 2.814375 5.071875 2.625 4.125 C2.12802644 1.80879168 2.12802644 1.80879168 0 0 Z " fill="#741532" transform="translate(142,174)"/>
  <path d="M0 0 C1.65 0.99 3.3 1.98 5 3 C4.67 3.99 4.34 4.98 4 6 C2.02 6 0.04 6 -2 6 C-2 6.66 -2 7.32 -2 8 C-2.66 8 -3.32 8 -4 8 C-4 7.01 -4 6.02 -4 5 C-3.34 5 -2.68 5 -2 5 C-2 4.34 -2 3.68 -2 3 C-1.34 3 -0.68 3 0 3 C0 2.01 0 1.02 0 0 Z " fill="#151412" transform="translate(79,207)"/>
  <path d="M0 0 C0.66 0 1.32 0 2 0 C1.34 1.98 0.68 3.96 0 6 C-0.99 6 -1.98 6 -3 6 C-3 6.66 -3 7.32 -3 8 C-4.98 8.33 -6.96 8.66 -9 9 C-9 8.34 -9 7.68 -9 7 C-7.68 7 -6.36 7 -5 7 C-5 6.34 -5 5.68 -5 5 C-3.625 3.375 -3.625 3.375 -2 2 C-1.34 2 -0.68 2 0 2 C0 1.34 0 0.68 0 0 Z " fill="#CEA6B2" transform="translate(191,169)"/>
  <path d="M0 0 C0.99 0 1.98 0 3 0 C3 2.64 3 5.28 3 8 C1.02 8.33 -0.96 8.66 -3 9 C-2.67 8.01 -2.34 7.02 -2 6 C-1.01 6 -0.02 6 1 6 C1.33 4.68 1.66 3.36 2 2 C1.34 2 0.68 2 0 2 C0 1.34 0 0.68 0 0 Z M-4 9 C-3.67 9.66 -3.34 10.32 -3 11 C-3.99 10.67 -4.98 10.34 -6 10 C-5.34 9.67 -4.68 9.34 -4 9 Z " fill="#5C0B23" transform="translate(188,163)"/>
  <path d="M0 0 C2.64 0 5.28 0 8 0 C7.67 0.66 7.34 1.32 7 2 C8.32 2 9.64 2 11 2 C11 2.66 11 3.32 11 4 C11.66 4.33 12.32 4.66 13 5 C13 5.66 13 6.32 13 7 C10.03 6.01 7.06 5.02 4 4 C4 3.34 4 2.68 4 2 C2.68 2 1.36 2 0 2 C0 1.34 0 0.68 0 0 Z " fill="#7A334B" transform="translate(150,90)"/>
  <path d="M0 0 C4.29 0.33 8.58 0.66 13 1 C13 2.32 13 3.64 13 5 C8.71 4.01 4.42 3.02 0 2 C0 1.34 0 0.68 0 0 Z " fill="#D6ABBC" transform="translate(137,77)"/>
  <path d="M0 0 C1.5 1.375 1.5 1.375 3 3 C3 3.66 3 4.32 3 5 C3.66 5 4.32 5 5 5 C5 5.66 5 6.32 5 7 C6.32 7 7.64 7 9 7 C9 7.66 9 8.32 9 9 C7.02 9 5.04 9 3 9 C3 8.34 3 7.68 3 7 C2.34 7 1.68 7 1 7 C0.67 4.69 0.34 2.38 0 0 Z " fill="#C3C1BF" transform="translate(36,216)"/>
  <path d="M0 0 C2.31 0 4.62 0 7 0 C7.33 1.65 7.66 3.3 8 5 C7.01 5.495 7.01 5.495 6 6 C6 4.68 6 3.36 6 2 C4.35 2 2.7 2 1 2 C1 2.99 1 3.98 1 5 C0.34 5 -0.32 5 -1 5 C-0.67 3.35 -0.34 1.7 0 0 Z " fill="#4D4D4D" transform="translate(78,201)"/>
  <path d="M0 0 C0.66 0 1.32 0 2 0 C2 0.66 2 1.32 2 2 C2.66 2 3.32 2 4 2 C4 2.66 4 3.32 4 4 C4.99 4 5.98 4 7 4 C7 4.66 7 5.32 7 6 C7.66 6 8.32 6 9 6 C9 6.66 9 7.32 9 8 C6.69 7.34 4.38 6.68 2 6 C2 5.34 2 4.68 2 4 C1.34 4 0.68 4 0 4 C0 2.68 0 1.36 0 0 Z " fill="#662032" transform="translate(122,148)"/>
  <path d="M0 0 C1.45922693 0.11409593 2.91740598 0.24165544 4.375 0.375 C5.59316406 0.47941406 5.59316406 0.47941406 6.8359375 0.5859375 C9 1 9 1 11 3 C8.03 2.67 5.06 2.34 2 2 C2 3.65 2 5.3 2 7 C1.34 7 0.68 7 0 7 C0 4.69 0 2.38 0 0 Z " fill="#70334A" transform="translate(186,141)"/>
  <path d="M0 0 C1.98 0 3.96 0 6 0 C6 1.32 6 2.64 6 4 C6.66 4 7.32 4 8 4 C8 4.66 8 5.32 8 6 C6.68 6.33 5.36 6.66 4 7 C3.67 6.01 3.34 5.02 3 4 C2.01979625 2.9805881 1.02196992 1.97753644 0 1 C0 0.67 0 0.34 0 0 Z " fill="#670525" transform="translate(174,105)"/>
  <path d="M0 0 C0.66 0 1.32 0 2 0 C2 1.32 2 2.64 2 4 C1.34 4 0.68 4 0 4 C0 4.99 0 5.98 0 7 C-2.64 7 -5.28 7 -8 7 C-8 6.34 -8 5.68 -8 5 C-6.02 5 -4.04 5 -2 5 C-2 4.34 -2 3.68 -2 3 C-1.34 3 -0.68 3 0 3 C0 2.01 0 1.02 0 0 Z " fill="#D0CFCD" transform="translate(75,218)"/>
  <path d="M0 0 C-0.33 0.99 -0.66 1.98 -1 3 C-1.99 3 -2.98 3 -4 3 C-4.33 4.32 -4.66 5.64 -5 7 C-5.99 7 -6.98 7 -8 7 C-8.33 5.68 -8.66 4.36 -9 3 C-7.68 3 -6.36 3 -5 3 C-5 2.34 -5 1.68 -5 1 C-3 0 -3 0 0 0 Z " fill="#666666" transform="translate(281,205)"/>
  <path d="M0 0 C0 0.99 0 1.98 0 3 C-4.29 3 -8.58 3 -13 3 C-13 2.34 -13 1.68 -13 1 C-11.20843648 0.83222817 -9.4167455 0.66581706 -7.625 0.5 C-6.62726563 0.4071875 -5.62953125 0.314375 -4.6015625 0.21875 C-2 0 -2 0 0 0 Z " fill="#5D5957" transform="translate(251,201)"/>
  <path d="M0 0 C3.3 0.33 6.6 0.66 10 1 C10 2.98 10 4.96 10 7 C9.34 7 8.68 7 8 7 C8 5.68 8 4.36 8 3 C5.69 3 3.38 3 1 3 C0.67 2.01 0.34 1.02 0 0 Z " fill="#5C5C5C" transform="translate(217,201)"/>
  <path d="M0 0 C0.33 0.99 0.66 1.98 1 3 C3.97 3 6.94 3 10 3 C10 3.66 10 4.32 10 5 C6.37 5 2.74 5 -1 5 C-0.67 3.35 -0.34 1.7 0 0 Z " fill="#4D4B49" transform="translate(258,218)"/>
  <path d="M0 0 C0.33 1.32 0.66 2.64 1 4 C-2.37817425 4.84454356 -4.67465243 5.10844919 -8 4 C-8 3.34 -8 2.68 -8 2 C-5.09399739 0.74335022 -3.20395416 0 0 0 Z " fill="#6A6663" transform="translate(100,212)"/>
  <path d="M0 0 C1.32 0 2.64 0 4 0 C4 0.99 4 1.98 4 3 C3.34 3 2.68 3 2 3 C2 4.98 2 6.96 2 9 C1.34 9 0.68 9 0 9 C-0.66 7.68 -1.32 6.36 -2 5 C-1.34 5 -0.68 5 0 5 C0 3.35 0 1.7 0 0 Z " fill="#BAB9B7" transform="translate(120,201)"/>
  <path d="M0 0 C2.31 0 4.62 0 7 0 C7 1.98 7 3.96 7 6 C6.34 6 5.68 6 5 6 C5 5.34 5 4.68 5 4 C3.35 4 1.7 4 0 4 C0.66 3.34 1.32 2.68 2 2 C1.34 1.34 0.68 0.68 0 0 Z " fill="#1E1E1E" transform="translate(21,202)"/>
  <path d="M0 0 C0.33 0.99 0.66 1.98 1 3 C3.31 3 5.62 3 8 3 C8 3.33 8 3.66 8 4 C-0.415 4.495 -0.415 4.495 -9 5 C-9 4.34 -9 3.68 -9 3 C-6.03 2.01 -3.06 1.02 0 0 Z " fill="#C8C8C8" transform="translate(76,197)"/>
  <path d="M0 0 C0.66 0 1.32 0 2 0 C2 1.32 2 2.64 2 4 C4.475 4.99 4.475 4.99 7 6 C6.01 6.33 5.02 6.66 4 7 C3.34 6.67 2.68 6.34 2 6 C2 6.99 2 7.98 2 9 C1.34 9 0.68 9 0 9 C0 6.03 0 3.06 0 0 Z " fill="#DBBCCA" transform="translate(182,122)"/>
  <path d="M0 0 C1.98 0 3.96 0 6 0 C6 0.66 6 1.32 6 2 C-0.625 5 -0.625 5 -4 5 C-4 4.01 -4 3.02 -4 2 C-2.68 2 -1.36 2 0 2 C0 1.34 0 0.68 0 0 Z " fill="#680624" transform="translate(105,79)"/>
  <path d="M0 0 C0.66 0 1.32 0 2 0 C2 1.32 2 2.64 2 4 C-1.63 4 -5.26 4 -9 4 C-9 3.34 -9 2.68 -9 2 C-6.03 2 -3.06 2 0 2 C0 1.34 0 0.68 0 0 Z " fill="#787774" transform="translate(191,219)"/>
  <path d="M0 0 C0 0.66 0 1.32 0 2 C-0.66 2 -1.32 2 -2 2 C-2 2.66 -2 3.32 -2 4 C-1.34 4.66 -0.68 5.32 0 6 C-1.98 6.33 -3.96 6.66 -6 7 C-6 5.02 -6 3.04 -6 1 C-3.92446352 0.4465236 -2.15634036 0 0 0 Z " fill="#A7A8A4" transform="translate(148,216)"/>
  <path d="M0 0 C2.64 0 5.28 0 8 0 C8 0.66 8 1.32 8 2 C7.34 2 6.68 2 6 2 C6 3.32 6 4.64 6 6 C5.34 6 4.68 6 4 6 C4 5.01 4 4.02 4 3 C2.68 3 1.36 3 0 3 C0 2.01 0 1.02 0 0 Z " fill="#EEEEEE" transform="translate(283,197)"/>
  <path d="M0 0 C0.33 0.66 0.66 1.32 1 2 C1.99 2 2.98 2 4 2 C4 4.97 4 7.94 4 11 C3.34 11 2.68 11 2 11 C2 9.02 2 7.04 2 5 C1.34 5 0.68 5 0 5 C0 3.35 0 1.7 0 0 Z " fill="#76344A" transform="translate(88,124)"/>
  <path d="M0 0 C1.32 0 2.64 0 4 0 C4 0.66 4 1.32 4 2 C5.65 2.33 7.3 2.66 9 3 C8.01 3.33 7.02 3.66 6 4 C6 4.66 6 5.32 6 6 C4.68 5.67 3.36 5.34 2 5 C2 4.34 2 3.68 2 3 C1.34 2.67 0.68 2.34 0 2 C0 1.34 0 0.68 0 0 Z " fill="#EECFDB" transform="translate(150,92)"/>
  <path d="M0 0 C-0.33 1.65 -0.66 3.3 -1 5 C-2.32 4.67 -3.64 4.34 -5 4 C-5 4.66 -5 5.32 -5 6 C-6.32 6.33 -7.64 6.66 -9 7 C-9 6.34 -9 5.68 -9 5 C-8.34 5 -7.68 5 -7 5 C-7 4.34 -7 3.68 -7 3 C-2.61538462 0 -2.61538462 0 0 0 Z " fill="#813B50" transform="translate(101,81)"/>
  <path d="M0 0 C1.32 0.33 2.64 0.66 4 1 C4.33 2.32 4.66 3.64 5 5 C6.32 5 7.64 5 9 5 C9 5.66 9 6.32 9 7 C6.1875 7.3125 6.1875 7.3125 3 7 C1.11400657 4.61107499 0 3.08148442 0 0 Z " fill="#5F5E5C" transform="translate(81,216)"/>
  <path d="M0 0 C0.66 0 1.32 0 2 0 C2 0.66 2 1.32 2 2 C2.66 2.33 3.32 2.66 4 3 C3.34 3 2.68 3 2 3 C2 4.32 2 5.64 2 7 C-0.31 7 -2.62 7 -5 7 C-4.01 6.67 -3.02 6.34 -2 6 C-2 5.34 -2 4.68 -2 4 C-1.34 4 -0.68 4 0 4 C0 2.68 0 1.36 0 0 Z " fill="#5D5E59" transform="translate(148,214)"/>
  <path d="M0 0 C0.66 0 1.32 0 2 0 C2 0.66 2 1.32 2 2 C2.66 2 3.32 2 4 2 C4 2.66 4 3.32 4 4 C3.34 4 2.68 4 2 4 C1.67 5.98 1.34 7.96 1 10 C0.34 9.67 -0.32 9.34 -1 9 C-1.125 2.25 -1.125 2.25 0 0 Z " fill="#312D2A" transform="translate(101,210)"/>
  <path d="M0 0 C-0.33 0.99 -0.66 1.98 -1 3 C-1.99 3 -2.98 3 -4 3 C-4 4.32 -4 5.64 -4 7 C-4.66 7 -5.32 7 -6 7 C-6 6.34 -6 5.68 -6 5 C-6.66 5 -7.32 5 -8 5 C-8 4.34 -8 3.68 -8 3 C-7.34 3 -6.68 3 -6 3 C-6 2.34 -6 1.68 -6 1 C-3.92446352 0.4465236 -2.15634036 0 0 0 Z " fill="#120F0C" transform="translate(111,207)"/>
  <path d="M0 0 C1.32 0 2.64 0 4 0 C4 0.66 4 1.32 4 2 C2.35 2.66 0.7 3.32 -1 4 C-1 4.66 -1 5.32 -1 6 C-2.32 6 -3.64 6 -5 6 C-5 5.34 -5 4.68 -5 4 C-4.34 4 -3.68 4 -3 4 C-3 3.34 -3 2.68 -3 2 C-2.01 2 -1.02 2 0 2 C0 1.34 0 0.68 0 0 Z " fill="#E9CBD7" transform="translate(116,88)"/>
  <path d="M0 0 C0.66 0 1.32 0 2 0 C2 1.32 2 2.64 2 4 C1.34 4 0.68 4 0 4 C0 5.32 0 6.64 0 8 C-0.66 8 -1.32 8 -2 8 C-2.33 6.02 -2.66 4.04 -3 2 C-2.01 2 -1.02 2 0 2 C0 1.34 0 0.68 0 0 Z " fill="#535350" transform="translate(133,206)"/>
  <path d="M0 0 C2.475 0.495 2.475 0.495 5 1 C5 1.66 5 2.32 5 3 C5.66 3 6.32 3 7 3 C7 3.66 7 4.32 7 5 C7.66 5.33 8.32 5.66 9 6 C7.02 6.33 5.04 6.66 3 7 C3.66 6.67 4.32 6.34 5 6 C5 5.34 5 4.68 5 4 C4.01 4 3.02 4 2 4 C1.34 2.68 0.68 1.36 0 0 Z " fill="#514848" transform="translate(171,201)"/>
  <path d="M0 0 C1.32 0 2.64 0 4 0 C4 0.66 4 1.32 4 2 C5.32 2.66 6.64 3.32 8 4 C5.6875 4.625 5.6875 4.625 3 5 C2.01 4.34 1.02 3.68 0 3 C0 2.01 0 1.02 0 0 Z " fill="#691F36" transform="translate(131,156)"/>
  <path d="M0 0 C2.31 0.33 4.62 0.66 7 1 C7 1.99 7 2.98 7 4 C5.02 4 3.04 4 1 4 C0.67 2.68 0.34 1.36 0 0 Z " fill="#E6C1CF" transform="translate(141,141)"/>
  <path d="M0 0 C0.66 0 1.32 0 2 0 C2 0.66 2 1.32 2 2 C2.66 2 3.32 2 4 2 C4 2.66 4 3.32 4 4 C4.66 4 5.32 4 6 4 C6.33 5.32 6.66 6.64 7 8 C6.34 8 5.68 8 5 8 C5 7.34 5 6.68 5 6 C4.01 6 3.02 6 2 6 C2 5.34 2 4.68 2 4 C1.34 4 0.68 4 0 4 C0 2.68 0 1.36 0 0 Z " fill="#F3D5E0" transform="translate(167,103)"/>
  <path d="M0 0 C1.32 0 2.64 0 4 0 C4 1.98 4 3.96 4 6 C2.68 5.67 1.36 5.34 0 5 C0 3.35 0 1.7 0 0 Z " fill="#161411" transform="translate(32,206)"/>
  <path d="M0 0 C1.485 0.99 1.485 0.99 3 2 C3 2.99 3 3.98 3 5 C3.66 5 4.32 5 5 5 C5 6.98 5 8.96 5 11 C4.34 10.34 3.68 9.68 3 9 C3 8.01 3 7.02 3 6 C2.01 6 1.02 6 0 6 C0 4.02 0 2.04 0 0 Z " fill="#56061F" transform="translate(96,135)"/>
  <path d="M0 0 C0 0.66 0 1.32 0 2 C-0.66 2 -1.32 2 -2 2 C-2 2.66 -2 3.32 -2 4 C-3.98 4.33 -5.96 4.66 -8 5 C-8 4.34 -8 3.68 -8 3 C-7.34 3 -6.68 3 -6 3 C-6 2.34 -6 1.68 -6 1 C-3.92446352 0.4465236 -2.15634036 0 0 0 Z " fill="#C1BEBC" transform="translate(53,218)"/>
  <path d="M0 0 C1.65 0 3.3 0 5 0 C5 0.66 5 1.32 5 2 C6.32 2.33 7.64 2.66 9 3 C9 3.66 9 4.32 9 5 C5.65626525 4.44271087 2.96687001 3.64826111 0 2 C0 1.34 0 0.68 0 0 Z " fill="#25211E" transform="translate(184,214)"/>
  <path d="M0 0 C0.66 0 1.32 0 2 0 C2 1.65 2 3.3 2 5 C1.34 5 0.68 5 0 5 C0 6.32 0 7.64 0 9 C-0.66 9 -1.32 9 -2 9 C-2 7.02 -2 5.04 -2 3 C-1.34 3 -0.68 3 0 3 C0 2.01 0 1.02 0 0 Z " fill="#555450" transform="translate(118,201)"/>
  <path d="M0 0 C0.66 0.66 1.32 1.32 2 2 C0.625 3.5 0.625 3.5 -1 5 C-1.66 5 -2.32 5 -3 5 C-3 5.66 -3 6.32 -3 7 C-3.66 7 -4.32 7 -5 7 C-5 5.68 -5 4.36 -5 3 C-4.34 3 -3.68 3 -3 3 C-3 2.34 -3 1.68 -3 1 C-2.01 0.67 -1.02 0.34 0 0 Z " fill="#292928" transform="translate(80,205)"/>
  <path d="M0 0 C0 1.65 0 3.3 0 5 C-0.66 5 -1.32 5 -2 5 C-2 5.66 -2 6.32 -2 7 C-2.66 7 -3.32 7 -4 7 C-4 5.02 -4 3.04 -4 1 C-2 0 -2 0 0 0 Z " fill="#151412" transform="translate(135,201)"/>
  <path d="M0 0 C3.96 0.33 7.92 0.66 12 1 C12 1.33 12 1.66 12 2 C9.36 2 6.72 2 4 2 C4 2.99 4 3.98 4 5 C2.68 4.34 1.36 3.68 0 3 C0 2.01 0 1.02 0 0 Z " fill="#CCC7C6" transform="translate(159,199)"/>
  <path d="M0 0 C4.29 0.33 8.58 0.66 13 1 C13 1.66 13 2.32 13 3 C9.37 3 5.74 3 2 3 C2 2.34 2 1.68 2 1 C1.34 0.67 0.68 0.34 0 0 Z " fill="#FEE8F4" transform="translate(126,87)"/>
  <path d="M0 0 C1.65 0 3.3 0 5 0 C6.25664978 2.90600261 7 4.79604584 7 8 C6.34 8 5.68 8 5 8 C4.67 8.66 4.34 9.32 4 10 C4 7.03 4 4.06 4 1 C2.68 0.67 1.36 0.34 0 0 Z " fill="#F0EEED" transform="translate(154,198)"/>
  <path d="M0 0 C1.65 0.33 3.3 0.66 5 1 C5 1.66 5 2.32 5 3 C4.34 3 3.68 3 3 3 C3 3.66 3 4.32 3 5 C1.68 5 0.36 5 -1 5 C-0.67 3.35 -0.34 1.7 0 0 Z " fill="#82334A" transform="translate(177,175)"/>
  <path d="M0 0 C0.99 0 1.98 0 3 0 C3 0.66 3 1.32 3 2 C4.32 2 5.64 2 7 2 C7 2.66 7 3.32 7 4 C7.66 4.33 8.32 4.66 9 5 C6.69 4.67 4.38 4.34 2 4 C2 3.34 2 2.68 2 2 C1.34 2 0.68 2 0 2 C0 1.34 0 0.68 0 0 Z " fill="#5D0720" transform="translate(122,165)"/>
  <path d="M0 0 C0.66 0 1.32 0 2 0 C2 1.98 2 3.96 2 6 C2.66 6 3.32 6 4 6 C3.67 6.99 3.34 7.98 3 9 C2.01 8.67 1.02 8.34 0 8 C0 5.36 0 2.72 0 0 Z " fill="#895267" transform="translate(105,120)"/>
  <path d="M0 0 C1.98 0 3.96 0 6 0 C6 0.66 6 1.32 6 2 C6.66 2 7.32 2 8 2 C8 2.66 8 3.32 8 4 C6.68 4 5.36 4 4 4 C4 3.34 4 2.68 4 2 C2.35 2 0.7 2 -1 2 C-0.67 1.34 -0.34 0.68 0 0 Z " fill="#8D9593" transform="translate(144,99)"/>
  <path d="M0 0 C0.66 0 1.32 0 2 0 C2 1.65 2 3.3 2 5 C1.34 5 0.68 5 0 5 C0 5.66 0 6.32 0 7 C-0.66 7 -1.32 7 -2 7 C-2 5.35 -2 3.7 -2 2 C-1.34 2 -0.68 2 0 2 C0 1.34 0 0.68 0 0 Z " fill="#3E3D3B" transform="translate(73,216)"/>
  <path d="M0 0 C1.98 0 3.96 0 6 0 C5.34 2.31 4.68 4.62 4 7 C3.34 7 2.68 7 2 7 C2.33 5.35 2.66 3.7 3 2 C2.01 2 1.02 2 0 2 C0 1.34 0 0.68 0 0 Z " fill="#534E4B" transform="translate(195,201)"/>
  <path d="M0 0 C1.32 0 2.64 0 4 0 C4 1.32 4 2.64 4 4 C3.34 4 2.68 4 2 4 C2 5.32 2 6.64 2 8 C1.34 8 0.68 8 0 8 C0 5.36 0 2.72 0 0 Z " fill="#D7D6D4" transform="translate(150,200)"/>
  <path d="M0 0 C2.3125 -0.25 2.3125 -0.25 5 0 C6.8125 2 6.8125 2 8 4 C6.68 4 5.36 4 4 4 C4 3.34 4 2.68 4 2 C2.68 2 1.36 2 0 2 C0 1.34 0 0.68 0 0 Z " fill="#722B40" transform="translate(107,156)"/>
  <path d="M0 0 C1.98 0 3.96 0 6 0 C6 0.66 6 1.32 6 2 C4.68 2 3.36 2 2 2 C2 2.66 2 3.32 2 4 C0.68 4 -0.64 4 -2 4 C-2 3.34 -2 2.68 -2 2 C-1.34 2 -0.68 2 0 2 C0 1.34 0 0.68 0 0 Z " fill="#A36679" transform="translate(103,77)"/>
  <path d="M0 0 C2.97 0 5.94 0 9 0 C8.67 1.32 8.34 2.64 8 4 C6.66666667 3.33333333 5.33333333 2.66666667 4 2 C2.68 2 1.36 2 0 2 C0 1.34 0 0.68 0 0 Z " fill="#3A3935" transform="translate(105,206)"/>
  <path d="M0 0 C1.65 0 3.3 0 5 0 C5 2 5 4 5 6 C4.34 6 3.68 6 3 6 C3 5.34 3 4.68 3 4 C2.34 4 1.68 4 1 4 C0.67 2.68 0.34 1.36 0 0 Z " fill="#1D1614" transform="translate(203,206)"/>
  <path d="M0 0 C0.66 0 1.32 0 2 0 C2 2.31 2 4.62 2 7 C0.68 7 -0.64 7 -2 7 C-2 4 -2 4 0 2 C0 1.34 0 0.68 0 0 Z " fill="#7A0929" transform="translate(120,152)"/>
  <path d="M0 0 C2.97 0.33 5.94 0.66 9 1 C9 1.66 9 2.32 9 3 C6.03 2.67 3.06 2.34 0 2 C0 1.34 0 0.68 0 0 Z " fill="#DAB9C7" transform="translate(186,139)"/>
  <path d="M0 0 C0.66 0 1.32 0 2 0 C2 1.65 2 3.3 2 5 C-0.02045442 4.39816251 -2.02111039 3.72693904 -4 3 C-4.33 2.34 -4.66 1.68 -5 1 C-2.525 1.495 -2.525 1.495 0 2 C0 1.34 0 0.68 0 0 Z " fill="#8D737E" transform="translate(193,126)"/>
  <path d="M0 0 C0 1.98 0 3.96 0 6 C-1.65 5.67 -3.3 5.34 -5 5 C-5 3 -5 3 -3.625 1.375 C-2 0 -2 0 0 0 Z " fill="#60263C" transform="translate(193,122)"/>
  <path d="M0 0 C2.31 0 4.62 0 7 0 C7 0.66 7 1.32 7 2 C5.02 2 3.04 2 1 2 C1 2.66 1 3.32 1 4 C0.34 4 -0.32 4 -1 4 C-0.67 2.68 -0.34 1.36 0 0 Z " fill="#F6DDE6" transform="translate(102,75)"/>
  <path d="M0 0 C1.32 0.33 2.64 0.66 4 1 C4 2.32 4 3.64 4 5 C2.68 5 1.36 5 0 5 C0 3.35 0 1.7 0 0 Z " fill="#2F2C29" transform="translate(41,218)"/>
  <path d="M0 0 C2.97 0.33 5.94 0.66 9 1 C8.01 1.33 7.02 1.66 6 2 C6 2.66 6 3.32 6 4 C4.02 3.34 2.04 2.68 0 2 C0 1.34 0 0.68 0 0 Z " fill="#6C6865" transform="translate(47,214)"/>
  <path d="M0 0 C1.32 0 2.64 0 4 0 C4 0.99 4 1.98 4 3 C4.66 3 5.32 3 6 3 C6 3.99 6 4.98 6 6 C5.34 6 4.68 6 4 6 C4 5.34 4 4.68 4 4 C3.34 4 2.68 4 2 4 C2 3.34 2 2.68 2 2 C1.34 2 0.68 2 0 2 C0 1.34 0 0.68 0 0 Z " fill="#45413E" transform="translate(189,210)"/>
  <path d="M0 0 C0.99 0.495 0.99 0.495 2 1 C2 1.66 2 2.32 2 3 C2.66 3 3.32 3 4 3 C4 4.32 4 5.64 4 7 C2.68 6.67 1.36 6.34 0 6 C0 4.02 0 2.04 0 0 Z " fill="#5C5B57" transform="translate(39,201)"/>
  <path d="M0 0 C3.3 0 6.6 0 10 0 C10 0.33 10 0.66 10 1 C8.906875 1.309375 7.81375 1.61875 6.6875 1.9375 C4.44592006 2.58337897 2.2130649 3.2623117 0 4 C0 2.68 0 1.36 0 0 Z " fill="#BAB9B5" transform="translate(110,200)"/>
  <path d="M0 0 C1.32 0.66 2.64 1.32 4 2 C3.67 2.99 3.34 3.98 3 5 C1.35 5 -0.3 5 -2 5 C-2 4.34 -2 3.68 -2 3 C-1.34 3 -0.68 3 0 3 C0 2.01 0 1.02 0 0 Z " fill="#F3F2F0" transform="translate(36,195)"/>
  <path d="M0 0 C2.31 0.33 4.62 0.66 7 1 C7 1.66 7 2.32 7 3 C7.66 3 8.32 3 9 3 C9 3.66 9 4.32 9 5 C5.22454612 3.90931332 2.52956528 3.0916909 0 0 Z " fill="#A57080" transform="translate(126,171)"/>
  <path d="M0 0 C1.98 0 3.96 0 6 0 C6 0.66 6 1.32 6 2 C6.66 2 7.32 2 8 2 C8 2.66 8 3.32 8 4 C5.36 3.34 2.72 2.68 0 2 C0 1.34 0 0.68 0 0 Z " fill="#D8ABBB" transform="translate(146,114)"/>
  <path d="M0 0 C2.475 0.99 2.475 0.99 5 2 C5 3.32 5 4.64 5 6 C4.34 6 3.68 6 3 6 C3 5.34 3 4.68 3 4 C2.34 4 1.68 4 1 4 C0.67 2.68 0.34 1.36 0 0 Z " fill="#994A65" transform="translate(173,107)"/>
  <path d="M0 0 C0.99 0 1.98 0 3 0 C2.625 2.9375 2.625 2.9375 2 6 C1.01 6.495 1.01 6.495 0 7 C0 4.69 0 2.38 0 0 Z " fill="#EDEBE8" transform="translate(154,210)"/>
  <path d="M0 0 C1.65 0 3.3 0 5 0 C4.67 1.98 4.34 3.96 4 6 C3.34 6 2.68 6 2 6 C2 4.68 2 3.36 2 2 C1.34 2 0.68 2 0 2 C0 1.34 0 0.68 0 0 Z " fill="#C3C3C2" transform="translate(86,204)"/>
  <path d="M0 0 C1.32 0 2.64 0 4 0 C4 0.66 4 1.32 4 2 C4.99 2 5.98 2 7 2 C7 2.66 7 3.32 7 4 C4.69 3.67 2.38 3.34 0 3 C0 2.01 0 1.02 0 0 Z " fill="#955F72" transform="translate(139,159)"/>
</svg>